<svg id="svg" xmlns="http://www.w3.org/2000/svg" xmlns:xlink="http://www.w3.org/1999/xlink" width="400" height="97.78198379369492" viewBox="0, 0, 400,97.78198379369492"><g id="svgg"><path id="path1" d="M59.292 30.125 C 61.240 30.151,64.427 30.151,66.375 30.125 C 68.323 30.098,66.729 30.076,62.833 30.076 C 58.938 30.076,57.344 30.098,59.292 30.125 M283.375 49.458 C 284.360 49.487,285.973 49.487,286.958 49.458 C 287.944 49.428,287.137 49.404,285.167 49.404 C 283.196 49.404,282.390 49.428,283.375 49.458 M176.705 73.333 C 176.705 73.654,176.740 73.785,176.782 73.625 C 176.823 73.465,176.823 73.202,176.782 73.042 C 176.740 72.881,176.705 73.012,176.705 73.333 " stroke="none" fill="#5a6097" fill-rule="evenodd"></path><path id="path2" d="M325.125 70.458 C 329.273 70.483,336.060 70.483,340.208 70.458 C 344.356 70.433,340.962 70.413,332.667 70.413 C 324.371 70.413,320.977 70.433,325.125 70.458 " stroke="none" fill="#c4c4d7" fill-rule="evenodd"></path><path id="path3" d="" stroke="none" fill="#4c548e" fill-rule="evenodd"></path><path id="path4" d="M55.875 63.375 L 55.833 96.667 62.875 96.627 L 69.917 96.587 62.959 96.542 L 56.001 96.496 55.958 63.290 L 55.916 30.083 55.875 63.375 M195.875 39.625 C 198.235 39.651,202.098 39.651,204.458 39.625 C 206.819 39.599,204.887 39.577,200.167 39.577 C 195.446 39.577,193.515 39.599,195.875 39.625 M24.375 44.448 C 24.535 44.490,24.798 44.490,24.958 44.448 C 25.119 44.406,24.988 44.372,24.667 44.372 C 24.346 44.372,24.215 44.406,24.375 44.448 M99.042 46.953 C 99.294 46.991,99.706 46.991,99.958 46.953 C 100.210 46.915,100.004 46.883,99.500 46.883 C 98.996 46.883,98.790 46.915,99.042 46.953 M152.542 46.953 C 152.794 46.991,153.206 46.991,153.458 46.953 C 153.710 46.915,153.504 46.883,153.000 46.883 C 152.496 46.883,152.290 46.915,152.542 46.953 M307.905 52.500 C 307.905 54.654,307.929 55.535,307.958 54.458 C 307.987 53.381,307.987 51.619,307.958 50.542 C 307.929 49.465,307.905 50.346,307.905 52.500 M232.212 53.000 C 232.212 53.413,232.245 53.581,232.284 53.375 C 232.324 53.169,232.324 52.831,232.284 52.625 C 232.245 52.419,232.212 52.587,232.212 53.000 M135.906 53.875 L 135.417 54.417 135.958 53.927 C 136.256 53.658,136.500 53.414,136.500 53.385 C 136.500 53.257,136.362 53.370,135.906 53.875 M340.667 56.727 C 340.667 56.773,340.892 56.971,341.167 57.167 C 341.442 57.362,341.667 57.485,341.667 57.439 C 341.667 57.394,341.442 57.196,341.167 57.000 C 340.892 56.804,340.667 56.681,340.667 56.727 M226.409 67.375 L 225.750 68.083 226.458 67.425 C 226.848 67.062,227.167 66.743,227.167 66.716 C 227.167 66.590,227.022 66.716,226.409 67.375 M237.575 72.875 L 236.917 73.583 237.625 72.925 C 238.015 72.562,238.333 72.243,238.333 72.216 C 238.333 72.090,238.188 72.216,237.575 72.875 M310.385 73.083 C 310.386 73.633,310.417 73.838,310.454 73.539 C 310.491 73.239,310.490 72.789,310.452 72.539 C 310.414 72.288,310.384 72.533,310.385 73.083 M123.205 73.333 C 123.205 73.654,123.240 73.785,123.282 73.625 C 123.323 73.465,123.323 73.202,123.282 73.042 C 123.240 72.881,123.205 73.012,123.205 73.333 M355.045 74.000 C 355.045 74.412,355.078 74.581,355.118 74.375 C 355.157 74.169,355.157 73.831,355.118 73.625 C 355.078 73.419,355.045 73.587,355.045 74.000 M106.083 77.000 L 89.083 77.086 106.032 77.126 C 117.195 77.153,123.015 77.110,123.083 77.000 C 123.140 76.908,123.163 76.852,123.135 76.874 C 123.107 76.896,115.433 76.953,106.083 77.000 M142.609 77.125 C 142.539 77.238,154.523 77.237,170.500 77.123 C 173.846 77.099,168.957 77.061,159.635 77.040 C 150.313 77.018,142.652 77.056,142.609 77.125 M26.877 85.120 C 27.131 85.158,27.506 85.157,27.711 85.117 C 27.916 85.078,27.708 85.046,27.250 85.048 C 26.792 85.049,26.624 85.081,26.877 85.120 M119.667 87.583 C 119.978 87.904,120.270 88.167,120.315 88.167 C 120.361 88.167,120.144 87.904,119.833 87.583 C 119.522 87.263,119.230 87.000,119.185 87.000 C 119.139 87.000,119.356 87.263,119.667 87.583 M316.500 90.052 C 316.500 90.081,316.744 90.325,317.042 90.594 L 317.583 91.083 317.094 90.542 C 316.638 90.037,316.500 89.923,316.500 90.052 M186.199 96.624 C 187.179 96.654,188.829 96.654,189.866 96.625 C 190.902 96.595,190.100 96.571,188.083 96.571 C 186.067 96.571,185.219 96.595,186.199 96.624 M270.051 96.624 C 271.041 96.654,272.616 96.654,273.551 96.624 C 274.485 96.595,273.675 96.570,271.750 96.571 C 269.825 96.571,269.060 96.595,270.051 96.624 M283.375 96.624 C 284.360 96.654,285.973 96.654,286.958 96.624 C 287.944 96.595,287.137 96.571,285.167 96.571 C 283.196 96.571,282.390 96.595,283.375 96.624 M100.627 97.618 C 100.834 97.658,101.134 97.656,101.294 97.615 C 101.453 97.573,101.283 97.540,100.917 97.542 C 100.550 97.544,100.420 97.578,100.627 97.618 M154.042 97.615 C 154.202 97.657,154.465 97.657,154.625 97.615 C 154.785 97.573,154.654 97.539,154.333 97.539 C 154.012 97.539,153.881 97.573,154.042 97.615 M333.794 97.618 C 334.001 97.658,334.301 97.656,334.460 97.615 C 334.620 97.573,334.450 97.540,334.083 97.542 C 333.717 97.544,333.586 97.578,333.794 97.618 " stroke="none" fill="#343c7d" fill-rule="evenodd"></path><path id="path0" d="M360.239 0.184 C 360.187 0.269,360.074 0.296,359.988 0.243 C 359.903 0.190,359.833 0.220,359.833 0.310 C 359.833 0.400,359.608 0.523,359.332 0.584 C 359.056 0.644,358.754 0.837,358.660 1.012 C 358.567 1.187,358.405 1.312,358.300 1.290 C 358.196 1.268,358.017 1.429,357.904 1.648 C 357.790 1.866,357.632 2.091,357.553 2.148 C 357.399 2.258,357.050 2.989,357.037 3.231 C 357.032 3.313,356.957 3.425,356.869 3.481 C 356.624 3.638,356.520 5.154,356.689 6.083 C 356.773 6.542,356.852 7.010,356.865 7.125 C 356.878 7.240,356.964 7.333,357.056 7.333 C 357.147 7.333,357.172 7.384,357.110 7.446 C 357.048 7.508,357.143 7.714,357.322 7.904 C 357.500 8.094,357.670 8.325,357.698 8.417 C 357.807 8.766,359.511 10.032,359.971 10.106 C 360.093 10.125,360.318 10.197,360.471 10.265 C 360.841 10.430,363.000 10.476,363.000 10.319 C 363.000 10.251,363.305 10.144,363.677 10.082 C 364.132 10.005,364.583 9.755,365.052 9.319 C 365.436 8.962,365.806 8.670,365.875 8.669 C 365.944 8.668,366.000 8.554,366.000 8.417 C 366.000 8.279,366.075 8.167,366.167 8.167 C 366.258 8.167,366.333 8.054,366.333 7.917 C 366.333 7.779,366.392 7.667,366.465 7.667 C 366.537 7.667,366.608 7.505,366.623 7.307 C 366.638 7.109,366.738 6.892,366.846 6.825 C 366.954 6.759,366.991 6.621,366.928 6.519 C 366.865 6.417,366.873 6.240,366.946 6.125 C 367.127 5.838,367.142 4.338,366.964 4.228 C 366.885 4.179,366.865 3.995,366.921 3.819 C 366.977 3.644,366.959 3.500,366.881 3.500 C 366.734 3.500,366.272 2.514,366.313 2.287 C 366.326 2.216,366.223 2.114,366.085 2.061 C 365.947 2.008,365.833 1.864,365.833 1.742 C 365.833 1.620,365.747 1.466,365.641 1.401 C 365.515 1.323,365.490 1.362,365.569 1.516 C 365.635 1.645,365.449 1.488,365.156 1.167 C 364.863 0.846,364.681 0.696,364.753 0.833 C 364.824 0.971,364.717 0.913,364.515 0.705 C 364.312 0.496,364.076 0.370,363.990 0.423 C 363.904 0.476,363.833 0.443,363.833 0.348 C 363.833 0.254,363.721 0.220,363.583 0.273 C 363.446 0.326,363.333 0.292,363.333 0.199 C 363.333 -0.017,360.372 -0.031,360.239 0.184 M390.733 17.194 C 390.691 17.262,390.553 17.279,390.428 17.231 C 390.303 17.183,390.150 17.225,390.089 17.325 C 390.027 17.424,389.912 17.465,389.833 17.417 C 389.754 17.368,389.643 17.404,389.585 17.497 C 389.527 17.590,389.335 17.667,389.157 17.667 C 388.979 17.667,388.833 17.746,388.833 17.843 C 388.833 17.940,388.758 17.973,388.667 17.917 C 388.575 17.860,388.500 17.893,388.500 17.990 C 388.500 18.087,388.391 18.167,388.258 18.167 C 388.125 18.167,387.940 18.298,387.847 18.458 C 387.753 18.619,387.675 18.703,387.672 18.646 C 387.661 18.429,386.032 20.136,385.924 20.477 C 385.862 20.673,385.741 20.833,385.655 20.833 C 385.570 20.833,385.500 20.912,385.500 21.008 C 385.500 21.104,385.352 21.489,385.171 21.864 C 384.990 22.239,384.882 22.610,384.931 22.689 C 384.980 22.769,384.945 22.833,384.854 22.833 C 384.628 22.833,384.566 24.822,384.757 25.917 C 384.821 26.283,384.881 26.715,384.889 26.875 C 384.898 27.035,384.964 27.167,385.036 27.167 C 385.108 27.167,385.167 27.345,385.167 27.563 C 385.167 27.781,385.281 28.054,385.421 28.170 C 385.560 28.286,385.639 28.417,385.595 28.460 C 385.552 28.504,385.606 28.641,385.716 28.764 C 386.228 29.337,386.416 29.582,386.405 29.663 C 386.399 29.711,386.618 29.938,386.892 30.167 C 387.167 30.396,387.561 30.744,387.769 30.941 C 387.976 31.137,388.189 31.256,388.240 31.205 C 388.291 31.153,388.333 31.203,388.333 31.315 C 388.333 31.428,388.408 31.473,388.500 31.417 C 388.592 31.360,388.667 31.384,388.667 31.471 C 388.667 31.557,388.835 31.683,389.042 31.750 C 389.248 31.817,389.473 31.891,389.542 31.915 C 389.856 32.024,389.925 32.038,390.042 32.020 C 390.110 32.009,390.167 32.083,390.167 32.185 C 390.167 32.299,390.327 32.329,390.583 32.265 C 390.813 32.207,391.000 32.222,391.000 32.297 C 391.000 32.372,391.600 32.433,392.333 32.433 C 393.067 32.433,393.667 32.384,393.667 32.323 C 393.667 32.262,393.854 32.249,394.083 32.293 C 394.353 32.344,394.500 32.297,394.500 32.158 C 394.500 32.041,394.549 31.994,394.610 32.054 C 394.670 32.114,394.820 32.080,394.943 31.978 C 395.066 31.876,395.167 31.844,395.167 31.908 C 395.167 31.971,395.381 31.870,395.644 31.683 C 395.906 31.496,396.169 31.391,396.227 31.449 C 396.286 31.508,396.333 31.473,396.333 31.372 C 396.333 31.272,396.495 31.138,396.692 31.075 C 397.131 30.936,398.167 30.015,398.167 29.764 C 398.167 29.664,398.392 29.370,398.667 29.110 C 398.943 28.850,399.126 28.569,399.074 28.485 C 399.023 28.402,399.051 28.333,399.138 28.333 C 399.225 28.333,399.345 28.071,399.406 27.750 C 399.466 27.429,399.577 27.167,399.653 27.167 C 399.942 27.167,399.975 22.575,399.689 22.289 C 399.585 22.185,399.500 22.006,399.500 21.891 C 399.500 21.696,398.895 20.682,398.496 20.208 C 398.399 20.094,398.359 20.000,398.406 20.000 C 398.453 20.000,398.154 19.662,397.741 19.250 C 397.329 18.837,396.918 18.500,396.829 18.500 C 396.740 18.500,396.667 18.425,396.667 18.333 C 396.667 18.242,396.554 18.167,396.417 18.167 C 396.279 18.167,396.167 18.087,396.167 17.990 C 396.167 17.893,396.092 17.860,396.000 17.917 C 395.908 17.973,395.833 17.940,395.833 17.843 C 395.833 17.746,395.696 17.667,395.528 17.667 C 395.360 17.667,395.170 17.614,395.106 17.551 C 395.043 17.487,394.880 17.412,394.745 17.384 C 394.248 17.281,393.917 17.191,393.917 17.159 C 393.917 17.056,390.797 17.090,390.733 17.194 M56.000 63.333 L 56.000 96.500 62.917 96.500 L 69.833 96.500 69.833 63.333 L 69.833 30.167 62.917 30.167 L 56.000 30.167 56.000 63.333 M22.780 31.943 C 22.742 31.981,22.307 32.042,21.814 32.080 C 20.562 32.175,18.479 32.571,17.000 32.995 C 16.313 33.192,15.637 33.368,15.500 33.385 C 15.362 33.402,15.213 33.462,15.167 33.517 C 15.121 33.572,14.673 33.753,14.170 33.918 C 13.668 34.083,13.156 34.320,13.032 34.444 C 12.908 34.568,12.746 34.632,12.672 34.587 C 12.598 34.541,12.446 34.615,12.333 34.750 C 12.221 34.885,12.074 34.962,12.006 34.921 C 11.939 34.879,11.726 34.992,11.532 35.172 C 11.339 35.353,11.135 35.500,11.078 35.500 C 11.022 35.500,10.872 35.594,10.744 35.708 C 10.205 36.192,10.000 36.341,10.000 36.250 C 10.000 36.137,9.623 36.430,9.090 36.958 C 8.882 37.165,8.664 37.333,8.605 37.333 C 8.412 37.333,6.833 38.935,6.833 39.130 C 6.833 39.235,6.683 39.402,6.500 39.500 C 6.317 39.598,6.167 39.791,6.167 39.928 C 6.167 40.065,6.055 40.220,5.918 40.273 C 5.781 40.325,5.710 40.436,5.762 40.519 C 5.813 40.601,5.737 40.714,5.594 40.769 C 5.451 40.824,5.333 40.973,5.333 41.101 C 5.333 41.229,5.264 41.333,5.180 41.333 C 5.095 41.333,4.939 41.596,4.833 41.917 C 4.727 42.237,4.567 42.500,4.477 42.500 C 4.387 42.500,4.360 42.575,4.417 42.667 C 4.473 42.758,4.440 42.833,4.343 42.833 C 4.246 42.833,4.167 42.979,4.167 43.157 C 4.167 43.335,4.090 43.527,3.997 43.585 C 3.904 43.643,3.871 43.760,3.924 43.845 C 3.977 43.930,3.940 44.000,3.843 44.000 C 3.746 44.000,3.680 44.056,3.697 44.125 C 3.740 44.303,3.302 45.713,3.135 45.937 C 3.057 46.040,3.041 46.246,3.098 46.396 C 3.156 46.545,3.132 46.667,3.046 46.667 C 2.959 46.667,2.882 46.760,2.874 46.875 C 2.866 46.990,2.798 47.646,2.722 48.333 C 2.518 50.204,2.594 54.908,2.838 55.500 C 2.857 55.546,2.861 55.647,2.847 55.726 C 2.833 55.804,2.904 55.967,3.004 56.089 C 3.105 56.210,3.171 56.408,3.151 56.529 C 3.130 56.651,3.163 56.862,3.222 57.000 C 3.281 57.137,3.362 57.438,3.402 57.667 C 3.442 57.896,3.490 58.121,3.507 58.167 C 3.525 58.212,3.531 58.306,3.520 58.375 C 3.509 58.444,3.587 58.500,3.694 58.500 C 3.801 58.500,3.842 58.547,3.784 58.605 C 3.726 58.663,3.788 58.867,3.923 59.059 C 4.057 59.251,4.167 59.541,4.167 59.704 C 4.167 59.867,4.254 60.000,4.361 60.000 C 4.468 60.000,4.508 60.048,4.449 60.106 C 4.336 60.219,4.826 60.979,5.454 61.665 C 5.662 61.893,5.833 62.131,5.833 62.194 C 5.833 62.393,7.931 64.500,8.128 64.500 C 8.232 64.500,8.393 64.631,8.487 64.792 C 8.580 64.952,8.660 65.008,8.664 64.917 C 8.669 64.813,8.718 64.816,8.794 64.925 C 8.862 65.022,9.200 65.273,9.546 65.483 C 9.892 65.694,10.275 65.966,10.397 66.087 C 10.644 66.334,11.847 66.899,12.042 66.859 C 12.110 66.845,12.167 66.903,12.167 66.988 C 12.167 67.073,12.579 67.263,13.083 67.409 C 13.587 67.556,14.000 67.736,14.000 67.810 C 14.000 67.884,14.101 67.944,14.225 67.944 C 14.349 67.944,14.949 68.144,15.560 68.389 C 16.171 68.633,16.782 68.833,16.918 68.833 C 17.055 68.833,17.167 68.912,17.167 69.007 C 17.167 69.103,17.260 69.163,17.375 69.140 C 17.562 69.103,18.501 69.358,19.167 69.626 C 19.304 69.681,19.529 69.745,19.667 69.768 C 19.804 69.791,20.067 69.853,20.250 69.906 C 20.433 69.959,20.977 70.092,21.458 70.201 C 21.940 70.310,22.333 70.455,22.333 70.523 C 22.333 70.592,22.483 70.619,22.667 70.583 C 22.850 70.548,23.000 70.602,23.000 70.704 C 23.000 70.806,23.040 70.849,23.088 70.801 C 23.159 70.730,24.258 70.948,25.250 71.230 C 25.342 71.256,25.754 71.367,26.167 71.476 C 26.579 71.585,27.051 71.750,27.215 71.843 C 27.379 71.935,27.586 71.967,27.673 71.912 C 27.761 71.858,27.833 71.893,27.833 71.990 C 27.833 72.087,27.890 72.152,27.958 72.135 C 28.192 72.076,29.249 72.371,29.484 72.561 C 29.613 72.665,29.725 72.723,29.734 72.689 C 29.769 72.555,31.167 73.064,31.167 73.211 C 31.167 73.298,31.270 73.329,31.396 73.281 C 31.523 73.232,31.714 73.281,31.821 73.388 C 31.929 73.495,32.069 73.587,32.133 73.592 C 32.441 73.613,33.000 73.871,33.000 73.991 C 33.000 74.065,33.244 74.225,33.542 74.345 C 33.840 74.465,34.143 74.662,34.217 74.782 C 34.290 74.902,34.441 75.000,34.552 75.000 C 34.663 75.000,34.940 75.233,35.168 75.517 C 35.397 75.802,35.677 76.134,35.791 76.255 C 36.313 76.808,36.735 80.335,36.311 80.597 C 36.232 80.646,36.167 80.832,36.167 81.010 C 36.167 81.188,36.087 81.333,35.990 81.333 C 35.893 81.333,35.855 81.400,35.906 81.483 C 35.957 81.565,35.886 81.675,35.749 81.727 C 35.612 81.780,35.500 81.919,35.500 82.036 C 35.499 82.327,34.232 83.500,33.919 83.500 C 33.780 83.500,33.667 83.569,33.667 83.653 C 33.667 83.772,32.432 84.348,32.000 84.430 C 31.954 84.438,31.804 84.494,31.667 84.554 C 30.111 85.230,22.917 85.168,22.054 84.471 C 21.946 84.384,21.759 84.331,21.637 84.352 C 21.425 84.390,20.186 84.094,19.667 83.881 C 19.529 83.825,19.379 83.769,19.333 83.757 C 18.863 83.636,17.878 83.260,17.735 83.146 C 17.635 83.067,17.503 83.052,17.443 83.113 C 17.383 83.173,17.333 83.135,17.333 83.028 C 17.333 82.921,17.211 82.833,17.062 82.833 C 16.737 82.833,14.667 81.834,14.667 81.677 C 14.667 81.617,14.404 81.472,14.083 81.356 C 13.762 81.240,13.500 81.071,13.500 80.979 C 13.500 80.888,13.436 80.853,13.359 80.901 C 13.281 80.949,13.064 80.846,12.876 80.671 C 12.689 80.496,12.502 80.387,12.461 80.428 C 12.419 80.470,12.182 80.315,11.934 80.085 C 11.686 79.855,11.412 79.667,11.325 79.667 C 11.238 79.667,11.167 79.593,11.167 79.502 C 11.167 79.412,10.923 79.232,10.625 79.103 C 10.327 78.974,9.835 78.636,9.532 78.352 C 8.600 77.478,7.500 77.391,7.500 78.191 C 7.500 78.275,7.237 78.585,6.917 78.879 C 6.596 79.173,6.333 79.492,6.333 79.587 C 6.333 79.682,6.202 79.881,6.042 80.030 C 5.881 80.179,5.525 80.577,5.250 80.915 C 4.975 81.252,4.581 81.699,4.375 81.908 C 4.169 82.117,4.000 82.370,4.000 82.470 C 4.000 82.571,3.738 82.862,3.417 83.118 C 3.096 83.374,2.833 83.673,2.833 83.782 C 2.833 83.892,2.667 84.098,2.463 84.241 C 2.259 84.383,2.158 84.500,2.239 84.500 C 2.319 84.500,2.186 84.671,1.943 84.880 C 1.699 85.089,1.499 85.333,1.498 85.422 C 1.498 85.511,1.273 85.761,0.998 85.977 C 0.724 86.194,0.500 86.471,0.500 86.594 C 0.500 86.716,0.379 86.885,0.230 86.968 C -0.097 87.151,0.354 88.000,0.779 88.000 C 0.911 88.000,0.973 88.075,0.917 88.167 C 0.860 88.258,0.931 88.333,1.073 88.333 C 1.216 88.333,1.333 88.411,1.333 88.505 C 1.333 88.600,1.465 88.727,1.625 88.788 C 1.968 88.919,2.226 89.113,2.743 89.625 C 2.951 89.831,3.207 90.000,3.311 90.000 C 3.415 90.000,3.500 90.075,3.500 90.167 C 3.500 90.258,3.556 90.317,3.625 90.296 C 3.785 90.249,4.711 90.847,4.873 91.102 C 4.940 91.209,5.184 91.343,5.415 91.401 C 5.645 91.459,5.833 91.584,5.833 91.680 C 5.833 91.775,5.900 91.812,5.983 91.761 C 6.065 91.710,6.177 91.785,6.231 91.928 C 6.286 92.071,6.400 92.145,6.485 92.092 C 6.570 92.040,6.772 92.129,6.933 92.290 C 7.094 92.451,7.269 92.575,7.321 92.564 C 7.513 92.526,8.167 92.891,8.167 93.037 C 8.167 93.119,8.235 93.144,8.319 93.092 C 8.403 93.040,8.498 93.077,8.530 93.175 C 8.563 93.272,8.701 93.371,8.836 93.394 C 9.331 93.480,9.923 93.711,10.167 93.914 C 10.304 94.028,10.641 94.175,10.915 94.241 C 11.189 94.306,11.459 94.434,11.515 94.524 C 11.571 94.615,11.759 94.716,11.933 94.748 C 12.108 94.781,12.250 94.819,12.250 94.833 C 12.250 94.847,12.434 94.892,12.659 94.933 C 12.885 94.975,13.120 95.091,13.182 95.192 C 13.245 95.293,13.379 95.325,13.481 95.262 C 13.583 95.199,13.667 95.210,13.667 95.287 C 13.667 95.364,13.865 95.444,14.108 95.464 C 14.351 95.484,14.651 95.584,14.775 95.687 C 14.899 95.790,15.000 95.818,15.000 95.750 C 15.000 95.682,15.101 95.709,15.224 95.811 C 15.347 95.914,15.501 95.944,15.566 95.878 C 15.631 95.813,15.738 95.846,15.804 95.952 C 15.869 96.058,16.259 96.188,16.670 96.241 C 17.081 96.294,17.717 96.416,18.083 96.514 C 18.450 96.611,18.864 96.707,19.003 96.728 C 19.142 96.749,19.330 96.806,19.420 96.856 C 19.510 96.905,19.883 96.961,20.250 96.979 C 20.617 96.998,21.367 97.092,21.917 97.189 C 23.037 97.387,31.000 97.511,31.000 97.331 C 31.000 97.268,31.544 97.167,32.208 97.107 C 33.835 96.960,34.519 96.849,34.917 96.668 C 35.100 96.585,35.700 96.399,36.250 96.255 C 37.424 95.948,37.443 95.942,38.053 95.692 C 38.311 95.587,38.629 95.500,38.761 95.500 C 38.892 95.500,39.000 95.425,39.000 95.333 C 39.000 95.242,39.056 95.183,39.125 95.202 C 39.194 95.222,39.424 95.141,39.636 95.024 C 39.848 94.906,40.168 94.782,40.347 94.747 C 40.526 94.713,40.789 94.568,40.931 94.426 C 41.074 94.284,41.367 94.123,41.583 94.069 C 41.799 94.014,42.018 93.859,42.070 93.724 C 42.122 93.589,42.240 93.526,42.332 93.583 C 42.424 93.640,42.500 93.607,42.500 93.510 C 42.500 93.413,42.604 93.333,42.732 93.333 C 42.860 93.333,43.008 93.221,43.060 93.083 C 43.113 92.946,43.268 92.833,43.406 92.833 C 43.543 92.833,43.735 92.683,43.833 92.500 C 43.931 92.317,44.090 92.167,44.185 92.167 C 44.372 92.167,46.333 90.292,46.333 90.113 C 46.333 90.011,46.453 89.853,47.203 88.966 C 47.361 88.780,47.535 88.486,47.590 88.314 C 47.644 88.141,47.744 88.000,47.811 88.000 C 47.878 88.000,48.028 87.737,48.144 87.417 C 48.260 87.096,48.425 86.833,48.511 86.833 C 48.597 86.833,48.653 86.777,48.636 86.708 C 48.619 86.640,48.743 86.283,48.911 85.917 C 49.080 85.550,49.205 85.190,49.189 85.116 C 49.174 85.042,49.274 84.819,49.414 84.620 C 49.553 84.422,49.667 84.093,49.667 83.889 C 49.667 83.686,49.745 83.471,49.840 83.412 C 49.936 83.354,49.968 83.162,49.912 82.986 C 49.856 82.810,49.877 82.667,49.958 82.667 C 50.040 82.667,50.113 82.460,50.122 82.208 C 50.130 81.956,50.228 81.075,50.339 80.250 C 50.607 78.257,50.457 74.344,50.066 73.112 C 50.003 72.913,49.938 72.637,49.922 72.500 C 49.906 72.362,49.842 72.119,49.780 71.958 C 49.486 71.201,49.450 71.069,49.481 70.875 C 49.499 70.760,49.436 70.667,49.341 70.667 C 49.245 70.667,49.177 70.610,49.189 70.542 C 49.232 70.308,48.617 69.000,48.465 69.000 C 48.382 69.000,48.360 68.925,48.417 68.833 C 48.473 68.742,48.445 68.667,48.354 68.667 C 48.264 68.667,48.137 68.498,48.074 68.292 C 48.011 68.085,47.837 67.792,47.688 67.640 C 47.539 67.488,47.267 67.166,47.083 66.924 C 46.265 65.843,45.783 65.333,45.577 65.333 C 45.456 65.333,45.196 65.108,45.000 64.833 C 44.804 64.558,44.545 64.333,44.423 64.333 C 44.302 64.333,44.159 64.220,44.106 64.082 C 44.053 63.943,43.949 63.850,43.876 63.873 C 43.803 63.897,43.565 63.751,43.347 63.547 C 43.128 63.344,42.886 63.218,42.808 63.266 C 42.730 63.314,42.667 63.282,42.667 63.195 C 42.667 63.107,42.479 62.989,42.250 62.932 C 42.021 62.874,41.833 62.749,41.833 62.654 C 41.833 62.558,41.767 62.521,41.686 62.571 C 41.605 62.621,41.345 62.509,41.107 62.322 C 40.870 62.135,40.516 61.952,40.321 61.914 C 40.126 61.877,39.854 61.753,39.716 61.639 C 39.579 61.525,39.350 61.414,39.208 61.393 C 39.066 61.373,38.890 61.259,38.817 61.141 C 38.744 61.023,38.634 60.977,38.571 61.040 C 38.509 61.102,38.223 61.028,37.937 60.876 C 37.651 60.723,37.360 60.614,37.292 60.632 C 37.223 60.651,37.167 60.588,37.167 60.493 C 37.167 60.397,37.073 60.338,36.958 60.361 C 36.844 60.384,36.581 60.310,36.375 60.196 C 36.169 60.082,36.000 60.038,36.000 60.098 C 36.000 60.158,35.887 60.114,35.750 60.000 C 35.612 59.886,35.500 59.848,35.500 59.917 C 35.500 59.985,35.391 59.950,35.257 59.839 C 35.124 59.729,34.943 59.682,34.855 59.737 C 34.767 59.791,34.670 59.764,34.639 59.678 C 34.608 59.591,34.396 59.485,34.167 59.443 C 32.763 59.187,32.500 59.116,32.500 58.992 C 32.500 58.916,32.369 58.855,32.208 58.856 C 32.048 58.857,31.617 58.773,31.250 58.669 C 30.883 58.565,30.490 58.472,30.375 58.462 C 30.260 58.452,30.167 58.377,30.167 58.295 C 30.167 58.213,30.035 58.159,29.875 58.175 C 29.715 58.192,29.527 58.187,29.458 58.165 C 29.250 58.098,29.112 58.069,28.376 57.934 C 27.987 57.863,27.626 57.736,27.574 57.652 C 27.523 57.568,27.264 57.500,27.000 57.500 C 26.736 57.500,26.475 57.428,26.421 57.341 C 26.367 57.253,26.220 57.221,26.095 57.269 C 25.970 57.317,25.820 57.279,25.762 57.185 C 25.703 57.091,25.546 57.057,25.411 57.108 C 25.277 57.160,25.167 57.122,25.167 57.023 C 25.167 56.924,25.054 56.887,24.917 56.940 C 24.779 56.992,24.667 56.957,24.667 56.861 C 24.667 56.765,24.517 56.715,24.333 56.750 C 24.150 56.785,24.000 56.744,24.000 56.657 C 24.000 56.571,23.944 56.514,23.875 56.532 C 23.619 56.597,22.575 56.289,22.333 56.077 C 22.196 55.956,22.027 55.852,21.958 55.845 C 21.890 55.839,21.815 55.828,21.792 55.821 C 21.769 55.814,21.575 55.776,21.362 55.737 C 21.149 55.697,20.862 55.553,20.725 55.416 C 20.588 55.279,20.425 55.161,20.363 55.154 C 19.881 55.100,19.599 54.994,19.498 54.830 C 19.433 54.725,19.332 54.663,19.274 54.694 C 19.215 54.725,18.961 54.556,18.709 54.319 C 18.457 54.081,18.079 53.796,17.870 53.685 C 17.662 53.574,17.535 53.412,17.589 53.324 C 17.643 53.236,17.577 53.122,17.442 53.070 C 17.199 52.977,16.864 52.327,16.751 51.729 C 16.719 51.557,16.680 51.417,16.666 51.417 C 16.249 51.417,16.799 47.709,17.253 47.455 C 17.389 47.379,17.500 47.235,17.500 47.136 C 17.500 46.935,18.341 46.093,18.548 46.087 C 18.620 46.085,18.750 45.971,18.837 45.833 C 18.924 45.696,18.996 45.645,18.997 45.720 C 18.999 45.796,19.198 45.702,19.439 45.512 C 19.681 45.322,20.012 45.167,20.175 45.167 C 20.339 45.167,20.497 45.099,20.528 45.015 C 20.575 44.885,21.269 44.710,22.170 44.599 C 22.309 44.582,22.496 44.531,22.586 44.485 C 23.195 44.180,29.509 44.652,29.639 45.013 C 29.670 45.099,29.753 45.133,29.823 45.090 C 29.893 45.046,30.332 45.150,30.799 45.321 C 31.265 45.491,31.689 45.589,31.740 45.538 C 31.791 45.486,31.833 45.535,31.833 45.646 C 31.833 45.757,31.927 45.833,32.042 45.814 C 32.156 45.795,32.461 45.867,32.719 45.973 C 32.977 46.080,33.258 46.167,33.344 46.167 C 33.430 46.167,33.500 46.245,33.500 46.341 C 33.500 46.436,33.594 46.501,33.708 46.484 C 34.027 46.436,35.000 46.845,35.000 47.026 C 35.000 47.114,35.069 47.144,35.152 47.092 C 35.236 47.040,35.331 47.077,35.364 47.175 C 35.396 47.272,35.534 47.371,35.670 47.394 C 36.158 47.479,36.667 47.691,36.667 47.811 C 36.667 47.878,36.929 48.028,37.250 48.144 C 37.571 48.260,37.833 48.429,37.833 48.521 C 37.833 48.612,37.908 48.640,38.000 48.583 C 38.092 48.527,38.167 48.560,38.167 48.657 C 38.167 48.754,38.268 48.833,38.392 48.833 C 38.516 48.833,38.820 49.021,39.068 49.250 C 39.315 49.479,39.626 49.667,39.759 49.667 C 39.891 49.667,40.000 49.746,40.000 49.843 C 40.000 49.940,40.070 49.976,40.156 49.923 C 40.242 49.870,40.374 49.927,40.448 50.051 C 40.675 50.427,41.170 50.516,41.551 50.250 C 41.747 50.112,41.835 49.998,41.745 49.994 C 41.656 49.991,41.755 49.845,41.966 49.670 C 42.176 49.495,42.344 49.291,42.339 49.217 C 42.335 49.144,42.430 48.968,42.551 48.826 C 42.672 48.684,42.820 48.441,42.880 48.284 C 42.940 48.128,43.067 48.000,43.161 48.000 C 43.256 48.000,43.333 47.915,43.333 47.810 C 43.333 47.706,43.465 47.513,43.625 47.381 C 43.798 47.239,43.815 47.192,43.667 47.266 C 43.380 47.409,43.948 46.670,44.295 46.448 C 44.412 46.374,44.468 46.250,44.421 46.174 C 44.374 46.097,44.447 45.992,44.584 45.939 C 44.721 45.887,44.833 45.729,44.833 45.589 C 44.833 45.448,44.910 45.333,45.004 45.333 C 45.097 45.333,45.264 45.127,45.375 44.875 C 45.486 44.623,45.673 44.356,45.792 44.281 C 45.910 44.207,45.963 44.075,45.910 43.989 C 45.856 43.902,45.929 43.786,46.073 43.731 C 46.216 43.676,46.333 43.527,46.333 43.399 C 46.333 43.271,46.408 43.167,46.500 43.167 C 46.592 43.167,46.667 43.054,46.667 42.917 C 46.667 42.779,46.742 42.667,46.833 42.667 C 46.925 42.667,47.000 42.566,47.000 42.442 C 47.000 42.319,47.150 42.083,47.333 41.917 C 47.517 41.751,47.667 41.512,47.667 41.386 C 47.667 41.259,47.779 41.113,47.917 41.060 C 48.054 41.008,48.167 40.868,48.167 40.750 C 48.167 40.632,48.279 40.492,48.417 40.440 C 48.554 40.387,48.667 40.225,48.667 40.079 C 48.667 39.933,48.606 39.851,48.533 39.896 C 48.459 39.942,48.130 39.732,47.800 39.431 C 47.471 39.129,47.081 38.836,46.934 38.780 C 46.787 38.723,46.667 38.595,46.667 38.495 C 46.667 38.395,46.591 38.360,46.499 38.417 C 46.407 38.474,46.286 38.404,46.231 38.262 C 46.177 38.119,46.072 38.039,46.000 38.083 C 45.928 38.128,45.823 38.048,45.769 37.905 C 45.714 37.762,45.593 37.692,45.501 37.749 C 45.409 37.806,45.333 37.774,45.333 37.677 C 45.333 37.579,45.221 37.500,45.083 37.500 C 44.946 37.500,44.833 37.412,44.833 37.306 C 44.833 37.199,44.784 37.161,44.723 37.221 C 44.662 37.282,44.367 37.145,44.067 36.916 C 43.768 36.687,43.442 36.500,43.344 36.500 C 43.247 36.500,43.167 36.437,43.167 36.360 C 43.167 36.283,42.867 36.130,42.500 36.020 C 42.133 35.910,41.833 35.758,41.833 35.682 C 41.833 35.606,41.496 35.449,41.083 35.333 C 40.671 35.218,40.333 35.054,40.333 34.969 C 40.333 34.883,40.258 34.860,40.167 34.917 C 40.075 34.973,40.000 34.940,40.000 34.843 C 40.000 34.746,39.892 34.667,39.761 34.667 C 39.629 34.667,39.311 34.580,39.053 34.473 C 38.794 34.367,38.527 34.292,38.458 34.306 C 38.390 34.321,38.333 34.246,38.333 34.139 C 38.333 34.032,38.292 33.986,38.240 34.037 C 38.189 34.088,37.683 33.985,37.115 33.807 C 35.735 33.375,35.707 33.368,34.750 33.151 C 34.292 33.047,33.824 32.887,33.710 32.795 C 33.597 32.704,33.393 32.672,33.257 32.724 C 33.122 32.776,32.966 32.746,32.910 32.657 C 32.855 32.568,32.759 32.523,32.697 32.558 C 32.634 32.593,31.946 32.515,31.167 32.385 C 29.225 32.061,22.990 31.732,22.780 31.943 M184.333 64.616 L 184.333 96.583 188.000 96.535 L 191.667 96.488 191.667 85.327 L 191.667 74.167 199.542 74.143 C 207.673 74.118,210.057 74.076,210.917 73.943 C 211.192 73.901,211.829 73.822,212.333 73.768 C 213.209 73.674,213.917 73.555,213.917 73.500 C 213.917 73.443,214.611 73.320,215.000 73.309 C 215.229 73.302,215.492 73.240,215.583 73.171 C 215.675 73.102,215.975 72.986,216.250 72.914 C 216.525 72.841,216.862 72.750,217.000 72.712 C 217.137 72.674,217.381 72.643,217.542 72.644 C 217.702 72.645,217.833 72.576,217.833 72.490 C 217.833 72.404,217.979 72.333,218.157 72.333 C 218.335 72.333,218.525 72.262,218.579 72.174 C 218.633 72.086,218.787 72.057,218.922 72.108 C 219.057 72.160,219.167 72.119,219.167 72.018 C 219.167 71.916,219.223 71.845,219.292 71.860 C 219.534 71.911,220.621 71.438,221.523 70.888 C 221.857 70.685,222.165 70.554,222.208 70.597 C 222.251 70.640,222.381 70.560,222.497 70.421 C 222.613 70.281,222.811 70.167,222.937 70.167 C 223.063 70.167,223.167 70.092,223.167 70.000 C 223.167 69.908,223.246 69.833,223.342 69.833 C 223.439 69.833,223.757 69.610,224.049 69.337 C 224.341 69.064,224.786 68.755,225.038 68.651 C 225.290 68.547,225.455 68.395,225.405 68.314 C 225.355 68.233,225.378 68.167,225.457 68.167 C 225.864 68.167,229.167 64.466,229.167 64.009 C 229.167 63.932,229.290 63.822,229.441 63.764 C 229.591 63.706,229.670 63.614,229.615 63.560 C 229.561 63.505,229.625 63.351,229.759 63.217 C 229.893 63.083,229.960 62.904,229.908 62.820 C 229.856 62.736,229.893 62.667,229.990 62.667 C 230.087 62.667,230.157 62.610,230.145 62.542 C 230.106 62.318,230.569 61.333,230.713 61.333 C 230.790 61.333,230.807 61.258,230.750 61.167 C 230.693 61.075,230.739 61.000,230.851 61.000 C 230.964 61.000,231.006 60.951,230.946 60.890 C 230.886 60.830,230.920 60.680,231.022 60.557 C 231.124 60.434,231.152 60.333,231.083 60.333 C 231.015 60.333,231.053 60.221,231.167 60.083 C 231.281 59.946,231.318 59.833,231.250 59.833 C 231.182 59.833,231.216 59.724,231.327 59.591 C 231.438 59.457,231.480 59.270,231.421 59.174 C 231.362 59.078,231.389 59.000,231.481 59.000 C 231.572 59.000,231.619 58.850,231.583 58.667 C 231.548 58.483,231.594 58.333,231.686 58.333 C 231.778 58.333,231.817 58.276,231.774 58.206 C 231.731 58.135,231.769 57.704,231.859 57.247 C 232.190 55.566,232.382 51.216,232.131 51.061 C 232.057 51.016,232.006 50.777,232.018 50.531 C 232.030 50.285,231.984 49.746,231.917 49.333 C 231.849 48.921,231.787 48.452,231.778 48.292 C 231.769 48.131,231.707 48.000,231.641 48.000 C 231.574 48.000,231.548 47.850,231.583 47.667 C 231.619 47.483,231.572 47.333,231.479 47.333 C 231.387 47.333,231.358 47.183,231.417 47.000 C 231.475 46.817,231.449 46.667,231.359 46.667 C 231.269 46.667,231.145 46.367,231.083 46.000 C 231.021 45.633,230.905 45.333,230.824 45.333 C 230.743 45.333,230.720 45.221,230.773 45.083 C 230.826 44.946,230.782 44.833,230.675 44.833 C 230.568 44.833,230.521 44.767,230.571 44.686 C 230.621 44.605,230.516 44.353,230.337 44.125 C 230.157 43.898,230.058 43.664,230.117 43.606 C 230.175 43.548,230.130 43.500,230.018 43.500 C 229.906 43.500,229.860 43.425,229.917 43.333 C 229.973 43.242,229.942 43.167,229.846 43.167 C 229.751 43.167,229.626 42.979,229.568 42.750 C 229.511 42.521,229.397 42.333,229.315 42.333 C 229.234 42.333,229.167 42.229,229.167 42.101 C 229.167 41.973,229.043 41.822,228.893 41.764 C 228.742 41.706,228.663 41.615,228.716 41.562 C 228.826 41.452,228.653 41.216,227.882 40.424 C 227.588 40.122,227.392 39.830,227.447 39.775 C 227.501 39.721,227.344 39.599,227.096 39.505 C 226.849 39.411,226.688 39.268,226.738 39.187 C 226.788 39.106,226.568 38.862,226.249 38.645 C 225.930 38.428,225.668 38.194,225.668 38.125 C 225.667 38.056,225.589 38.000,225.493 38.000 C 225.319 38.000,225.092 37.840,224.488 37.292 C 224.311 37.131,224.098 37.000,224.014 37.000 C 223.930 37.000,223.836 36.944,223.806 36.875 C 223.775 36.806,223.487 36.618,223.167 36.458 C 222.846 36.297,222.208 35.945,221.750 35.677 C 221.292 35.408,220.785 35.184,220.625 35.178 C 220.465 35.172,220.333 35.088,220.333 34.993 C 220.333 34.897,220.240 34.834,220.125 34.853 C 220.010 34.871,219.706 34.800,219.447 34.693 C 219.189 34.587,218.871 34.500,218.739 34.500 C 218.608 34.500,218.500 34.417,218.500 34.316 C 218.500 34.214,218.387 34.174,218.250 34.227 C 218.112 34.280,218.000 34.263,218.000 34.189 C 218.000 34.116,217.906 34.055,217.792 34.055 C 217.539 34.054,215.849 33.678,215.500 33.545 C 215.362 33.493,215.100 33.430,214.917 33.407 C 214.733 33.383,213.983 33.284,213.250 33.187 C 212.517 33.090,211.504 32.961,211.000 32.901 C 210.496 32.841,204.290 32.760,197.208 32.721 L 184.333 32.649 184.333 64.616 M363.741 34.348 C 363.700 34.415,363.291 34.520,362.833 34.583 C 362.375 34.646,362.000 34.770,362.000 34.859 C 362.000 34.947,361.924 34.973,361.832 34.916 C 361.740 34.859,361.547 34.929,361.403 35.073 C 361.260 35.216,361.036 35.333,360.905 35.333 C 360.774 35.333,360.667 35.413,360.667 35.510 C 360.667 35.607,360.592 35.640,360.500 35.583 C 360.408 35.527,360.333 35.547,360.333 35.629 C 360.333 35.710,360.135 35.883,359.894 36.012 C 359.256 36.354,357.568 38.022,357.435 38.443 C 357.372 38.641,357.211 38.845,357.077 38.896 C 356.943 38.947,356.833 39.125,356.833 39.291 C 356.833 39.457,356.723 39.749,356.589 39.941 C 356.455 40.133,356.392 40.337,356.450 40.395 C 356.508 40.453,356.462 40.500,356.347 40.500 C 356.233 40.500,356.172 40.594,356.213 40.708 C 356.254 40.823,356.197 41.104,356.087 41.333 C 355.977 41.563,355.868 42.161,355.846 42.664 C 355.823 43.167,355.776 43.625,355.740 43.683 C 355.705 43.740,355.755 44.416,355.851 45.185 C 355.947 45.954,356.032 46.677,356.040 46.792 C 356.049 46.906,356.122 47.000,356.204 47.000 C 356.286 47.000,356.308 47.073,356.253 47.162 C 356.198 47.251,356.274 47.510,356.423 47.737 C 356.572 47.964,356.712 48.272,356.734 48.421 C 356.755 48.571,356.851 48.744,356.945 48.805 C 357.040 48.866,357.213 49.099,357.331 49.323 C 357.580 49.796,357.661 49.895,358.689 51.002 C 359.114 51.459,359.508 51.833,359.564 51.833 C 359.620 51.833,359.817 51.983,360.000 52.167 C 360.183 52.350,360.446 52.500,360.583 52.500 C 360.721 52.500,360.833 52.575,360.833 52.667 C 360.833 52.758,360.890 52.821,360.958 52.806 C 361.027 52.792,361.308 52.872,361.583 52.985 C 361.858 53.098,362.290 53.232,362.542 53.283 C 362.794 53.334,363.000 53.422,363.000 53.479 C 363.000 53.603,364.005 53.695,365.500 53.707 C 366.844 53.718,368.000 53.615,368.000 53.485 C 368.000 53.431,368.412 53.288,368.917 53.167 C 369.421 53.046,369.833 52.879,369.833 52.797 C 369.833 52.714,369.908 52.693,370.000 52.750 C 370.092 52.807,370.167 52.786,370.167 52.703 C 370.167 52.621,370.357 52.467,370.590 52.361 C 371.073 52.141,371.325 51.951,372.060 51.255 C 372.348 50.982,372.635 50.774,372.698 50.793 C 372.761 50.811,372.860 50.678,372.918 50.497 C 372.975 50.315,373.096 50.167,373.187 50.167 C 373.277 50.167,373.429 49.942,373.525 49.667 C 373.621 49.392,373.756 49.202,373.825 49.245 C 373.968 49.333,374.333 48.612,374.333 48.242 C 374.333 48.109,374.408 48.000,374.500 48.000 C 374.592 48.000,374.653 47.944,374.637 47.875 C 374.606 47.742,374.947 46.417,375.120 46.000 C 375.267 45.647,375.291 42.160,375.147 42.071 C 375.026 41.997,374.745 40.684,374.802 40.458 C 374.819 40.390,374.754 40.333,374.657 40.333 C 374.560 40.333,374.527 40.258,374.583 40.167 C 374.640 40.075,374.607 40.000,374.510 40.000 C 374.413 40.000,374.348 39.944,374.366 39.875 C 374.432 39.628,374.140 39.000,373.961 39.000 C 373.860 39.000,373.822 38.956,373.875 38.903 C 373.928 38.849,373.847 38.670,373.694 38.504 C 373.035 37.787,372.667 37.293,372.667 37.125 C 372.667 37.026,372.621 36.991,372.564 37.047 C 372.508 37.103,372.226 36.907,371.939 36.612 C 371.652 36.316,371.210 35.984,370.958 35.874 C 370.706 35.764,370.500 35.603,370.500 35.517 C 370.500 35.430,370.275 35.310,370.000 35.250 C 369.725 35.190,369.500 35.063,369.500 34.969 C 369.500 34.875,369.397 34.837,369.270 34.886 C 369.144 34.934,368.967 34.900,368.876 34.809 C 368.785 34.719,368.457 34.609,368.147 34.564 C 367.837 34.520,367.471 34.438,367.333 34.381 C 366.975 34.233,363.830 34.204,363.741 34.348 M210.917 39.705 C 211.650 39.796,212.419 39.877,212.625 39.885 C 212.831 39.893,213.000 39.944,213.000 39.998 C 213.000 40.051,213.131 40.107,213.292 40.122 C 213.841 40.173,214.417 40.302,214.858 40.474 C 215.101 40.568,215.344 40.600,215.400 40.545 C 215.455 40.490,215.500 40.540,215.500 40.657 C 215.500 40.773,215.603 40.829,215.730 40.781 C 215.856 40.732,216.031 40.765,216.119 40.852 C 216.207 40.940,216.496 41.052,216.761 41.100 C 217.026 41.148,217.300 41.276,217.369 41.385 C 217.438 41.494,217.496 41.522,217.497 41.446 C 217.499 41.371,217.622 41.431,217.770 41.580 C 217.919 41.728,218.256 41.893,218.520 41.946 C 218.784 41.998,219.000 42.089,219.000 42.147 C 219.000 42.205,219.212 42.346,219.472 42.461 C 220.007 42.698,222.500 45.029,222.500 45.292 C 222.500 45.387,222.617 45.509,222.761 45.564 C 222.904 45.619,222.974 45.740,222.917 45.832 C 222.860 45.924,222.893 46.000,222.990 46.000 C 223.087 46.000,223.167 46.103,223.167 46.230 C 223.167 46.356,223.278 46.552,223.415 46.665 C 223.551 46.778,223.622 46.938,223.572 47.019 C 223.521 47.100,223.560 47.167,223.657 47.167 C 223.754 47.167,223.833 47.237,223.833 47.322 C 223.833 47.408,223.920 47.689,224.026 47.947 C 224.318 48.662,224.317 48.657,224.627 50.127 C 225.251 53.090,224.806 57.429,223.705 59.125 C 223.571 59.331,223.510 59.500,223.568 59.500 C 223.686 59.500,223.222 60.255,222.833 60.694 C 222.321 61.273,222.156 61.500,222.249 61.500 C 222.302 61.500,221.855 61.987,221.256 62.583 C 220.657 63.179,220.092 63.667,220.000 63.667 C 219.909 63.667,219.833 63.744,219.833 63.837 C 219.833 63.931,219.646 64.080,219.417 64.167 C 219.188 64.254,219.000 64.406,219.000 64.506 C 219.000 64.605,218.925 64.640,218.833 64.583 C 218.742 64.527,218.667 64.546,218.667 64.626 C 218.667 64.775,217.602 65.356,217.187 65.434 C 217.060 65.457,216.876 65.557,216.778 65.655 C 216.680 65.753,216.465 65.833,216.300 65.833 C 216.135 65.833,216.000 65.906,216.000 65.995 C 216.000 66.084,215.887 66.113,215.750 66.060 C 215.612 66.008,215.500 66.052,215.500 66.159 C 215.500 66.266,215.430 66.310,215.345 66.257 C 215.260 66.204,215.142 66.239,215.083 66.333 C 215.025 66.428,214.907 66.462,214.822 66.410 C 214.736 66.357,214.667 66.389,214.667 66.481 C 214.667 66.572,214.517 66.619,214.333 66.583 C 214.150 66.548,214.000 66.594,214.000 66.686 C 214.000 66.778,213.921 66.804,213.825 66.745 C 213.729 66.686,213.523 66.693,213.367 66.760 C 213.025 66.909,212.708 66.984,212.208 67.035 C 212.002 67.056,211.833 67.114,211.833 67.165 C 211.833 67.355,210.869 67.370,200.125 67.349 L 191.667 67.333 191.667 53.411 L 191.667 39.488 200.625 39.514 C 205.552 39.528,210.183 39.614,210.917 39.705 M96.407 47.016 C 96.369 47.077,95.836 47.181,95.222 47.247 C 93.737 47.406,93.294 47.492,93.089 47.662 C 92.913 47.807,91.869 48.042,91.602 47.996 C 91.521 47.983,91.401 48.057,91.337 48.161 C 91.273 48.265,91.058 48.362,90.860 48.377 C 90.662 48.392,90.500 48.463,90.500 48.535 C 90.500 48.608,90.322 48.667,90.104 48.667 C 89.886 48.667,89.615 48.778,89.502 48.915 C 89.388 49.051,89.229 49.122,89.148 49.072 C 89.067 49.021,89.000 49.072,89.000 49.185 C 89.000 49.297,88.952 49.341,88.894 49.283 C 88.835 49.224,88.573 49.329,88.310 49.516 C 88.048 49.703,87.833 49.808,87.833 49.749 C 87.833 49.691,87.715 49.761,87.571 49.905 C 87.427 50.049,87.202 50.167,87.071 50.167 C 86.940 50.167,86.833 50.246,86.833 50.343 C 86.833 50.440,86.766 50.478,86.684 50.427 C 86.602 50.377,86.490 50.452,86.435 50.595 C 86.381 50.738,86.273 50.816,86.196 50.768 C 86.120 50.721,85.815 50.904,85.518 51.174 C 85.222 51.445,84.927 51.667,84.863 51.667 C 84.799 51.667,84.653 51.817,84.539 52.000 C 84.424 52.183,84.247 52.333,84.145 52.333 C 84.043 52.333,83.373 52.952,82.657 53.708 C 80.806 55.661,80.588 55.908,80.645 55.985 C 80.674 56.023,80.576 56.121,80.428 56.204 C 80.280 56.286,80.201 56.420,80.251 56.502 C 80.301 56.583,80.188 56.732,80.000 56.833 C 79.812 56.934,79.697 57.080,79.744 57.158 C 79.792 57.235,79.736 57.335,79.618 57.380 C 79.501 57.425,79.220 57.827,78.994 58.273 C 78.768 58.719,78.527 59.108,78.457 59.139 C 78.388 59.170,78.374 59.264,78.425 59.348 C 78.477 59.431,78.440 59.500,78.343 59.500 C 78.246 59.500,78.182 59.556,78.200 59.625 C 78.259 59.849,77.982 60.500,77.827 60.500 C 77.745 60.500,77.725 60.625,77.784 60.777 C 77.853 60.958,77.825 61.015,77.703 60.939 C 77.585 60.866,77.476 61.039,77.406 61.414 C 77.345 61.738,77.228 62.046,77.145 62.097 C 77.062 62.148,77.038 62.260,77.090 62.345 C 77.143 62.430,77.094 62.500,76.982 62.500 C 76.870 62.500,76.827 62.549,76.887 62.610 C 76.948 62.670,76.914 62.820,76.811 62.943 C 76.709 63.066,76.666 63.167,76.716 63.167 C 76.850 63.167,76.487 64.402,76.323 64.505 C 76.189 64.589,76.111 64.982,75.892 66.667 C 75.838 67.079,75.733 67.456,75.657 67.503 C 75.582 67.551,75.546 67.814,75.576 68.087 C 75.607 68.360,75.588 68.656,75.534 68.745 C 75.232 69.240,75.224 76.000,75.525 76.000 C 75.598 76.000,75.632 76.300,75.601 76.667 C 75.570 77.033,75.593 77.333,75.653 77.333 C 75.713 77.333,75.768 77.465,75.775 77.625 C 75.782 77.785,75.844 78.179,75.913 78.500 C 75.981 78.821,76.042 79.177,76.047 79.292 C 76.052 79.406,76.111 79.500,76.179 79.500 C 76.247 79.500,76.263 79.650,76.215 79.833 C 76.167 80.017,76.201 80.167,76.291 80.167 C 76.381 80.167,76.550 80.617,76.667 81.167 C 76.783 81.717,76.952 82.167,77.041 82.167 C 77.130 82.167,77.159 82.279,77.106 82.417 C 77.054 82.554,77.088 82.667,77.182 82.667 C 77.276 82.667,77.310 82.736,77.257 82.822 C 77.204 82.907,77.237 83.024,77.331 83.082 C 77.424 83.139,77.500 83.332,77.500 83.510 C 77.500 83.688,77.588 83.833,77.694 83.833 C 77.801 83.833,77.842 83.880,77.786 83.937 C 77.729 83.993,77.792 84.149,77.926 84.283 C 78.060 84.417,78.127 84.596,78.075 84.680 C 78.023 84.764,78.064 84.833,78.167 84.833 C 78.269 84.833,78.310 84.902,78.258 84.987 C 78.206 85.071,78.277 85.253,78.415 85.391 C 78.553 85.530,78.667 85.723,78.667 85.821 C 78.667 85.920,78.746 86.000,78.843 86.000 C 78.940 86.000,78.973 86.076,78.916 86.168 C 78.859 86.260,78.924 86.379,79.061 86.431 C 79.198 86.484,79.386 86.746,79.480 87.013 C 79.573 87.281,79.728 87.500,79.825 87.500 C 79.921 87.500,80.000 87.612,80.000 87.750 C 80.000 87.888,80.075 88.000,80.167 88.000 C 80.258 88.000,80.333 88.110,80.333 88.245 C 80.333 88.380,80.558 88.656,80.833 88.860 C 81.108 89.063,81.333 89.314,81.333 89.417 C 81.333 89.611,83.239 91.500,83.435 91.500 C 83.495 91.500,83.736 91.706,83.970 91.958 C 84.204 92.210,84.456 92.417,84.530 92.417 C 84.605 92.417,84.884 92.623,85.151 92.875 C 85.418 93.127,85.718 93.333,85.818 93.333 C 85.918 93.333,86.000 93.413,86.000 93.510 C 86.000 93.607,86.070 93.643,86.156 93.590 C 86.242 93.536,86.380 93.614,86.463 93.761 C 86.546 93.909,86.644 94.016,86.682 94.000 C 86.836 93.931,87.667 94.399,87.667 94.555 C 87.667 94.647,87.714 94.674,87.773 94.616 C 87.831 94.558,88.083 94.655,88.333 94.833 C 88.583 95.011,88.835 95.109,88.894 95.051 C 88.952 94.992,89.000 95.036,89.000 95.149 C 89.000 95.261,89.075 95.307,89.167 95.250 C 89.258 95.193,89.333 95.226,89.333 95.323 C 89.333 95.421,89.479 95.500,89.657 95.500 C 89.835 95.500,90.027 95.576,90.085 95.669 C 90.143 95.763,90.260 95.796,90.345 95.743 C 90.430 95.690,90.500 95.724,90.500 95.818 C 90.500 95.912,90.612 95.946,90.750 95.894 C 90.888 95.841,91.000 95.868,91.000 95.954 C 91.000 96.041,91.094 96.120,91.208 96.131 C 91.790 96.188,93.000 96.575,93.000 96.705 C 93.000 96.786,93.078 96.805,93.174 96.745 C 93.270 96.686,93.457 96.729,93.591 96.839 C 93.724 96.950,93.833 97.003,93.833 96.956 C 93.833 96.910,94.377 96.977,95.042 97.106 C 95.706 97.234,96.513 97.388,96.833 97.447 C 98.010 97.665,105.153 97.536,105.833 97.284 C 105.971 97.233,106.448 97.143,106.894 97.083 C 107.340 97.023,108.161 96.828,108.718 96.650 C 109.275 96.472,109.958 96.287,110.236 96.238 C 110.514 96.189,110.789 96.071,110.848 95.977 C 110.906 95.882,110.983 95.823,111.019 95.845 C 111.151 95.927,112.333 95.428,112.333 95.290 C 112.333 95.211,112.408 95.193,112.500 95.250 C 112.592 95.307,112.667 95.274,112.667 95.177 C 112.667 95.079,112.723 95.018,112.792 95.040 C 112.995 95.104,114.000 94.639,114.000 94.480 C 114.000 94.399,114.094 94.333,114.208 94.333 C 114.323 94.333,114.635 94.146,114.901 93.916 C 115.167 93.687,115.478 93.500,115.591 93.500 C 115.705 93.500,115.843 93.383,115.898 93.239 C 115.953 93.096,116.065 93.020,116.147 93.071 C 116.230 93.122,116.421 92.975,116.572 92.743 C 116.724 92.512,116.920 92.367,117.007 92.421 C 117.095 92.475,117.167 92.438,117.167 92.338 C 117.167 92.238,117.298 92.107,117.458 92.047 C 117.711 91.952,119.858 89.846,120.458 89.105 C 120.738 88.760,120.723 88.167,120.436 88.167 C 120.309 88.167,119.934 87.867,119.603 87.500 C 119.272 87.133,118.932 86.833,118.849 86.833 C 118.765 86.833,118.497 86.596,118.253 86.307 C 118.010 86.017,117.534 85.579,117.197 85.332 C 116.859 85.085,116.123 84.422,115.560 83.859 C 114.997 83.295,114.477 82.833,114.403 82.833 C 114.330 82.833,114.000 82.552,113.672 82.208 C 112.927 81.429,112.771 81.398,112.343 81.942 C 112.154 82.182,112.000 82.319,112.000 82.247 C 112.000 82.175,111.860 82.277,111.689 82.474 C 111.518 82.672,111.295 82.833,111.195 82.833 C 111.094 82.833,110.931 82.983,110.833 83.167 C 110.735 83.350,110.543 83.500,110.406 83.500 C 110.268 83.500,110.116 83.606,110.066 83.735 C 110.016 83.864,109.794 84.016,109.571 84.071 C 109.349 84.127,109.167 84.251,109.167 84.346 C 109.167 84.442,109.092 84.473,109.000 84.417 C 108.908 84.360,108.833 84.393,108.833 84.490 C 108.833 84.587,108.745 84.667,108.638 84.667 C 108.531 84.667,108.312 84.785,108.153 84.929 C 107.993 85.074,107.762 85.207,107.640 85.226 C 107.517 85.244,107.342 85.304,107.250 85.358 C 107.060 85.470,105.835 85.886,105.583 85.924 C 105.492 85.938,105.379 85.966,105.333 85.987 C 105.219 86.040,104.668 86.160,104.167 86.242 C 103.938 86.280,103.750 86.320,103.750 86.331 C 103.750 86.377,102.368 86.494,101.500 86.521 C 99.951 86.570,97.230 86.237,97.070 85.978 C 97.019 85.895,96.904 85.873,96.815 85.928 C 96.725 85.984,96.562 85.957,96.451 85.869 C 96.340 85.782,95.969 85.620,95.625 85.509 C 95.281 85.398,95.000 85.238,95.000 85.154 C 95.000 85.069,94.944 85.016,94.875 85.035 C 94.736 85.075,94.056 84.722,93.719 84.436 C 93.051 83.867,91.311 82.167,91.398 82.167 C 91.454 82.167,91.353 82.019,91.173 81.839 C 90.781 81.448,89.752 79.338,89.808 79.042 C 89.830 78.927,89.778 78.833,89.693 78.833 C 89.607 78.833,89.491 78.590,89.435 78.292 C 89.378 77.994,89.299 77.581,89.259 77.373 L 89.185 76.997 106.144 77.040 L 123.102 77.083 123.154 76.583 C 123.182 76.308,123.203 74.771,123.202 73.167 C 123.199 70.582,123.090 69.179,122.737 67.167 C 122.681 66.846,122.617 66.433,122.596 66.250 C 122.575 66.067,122.510 65.804,122.453 65.667 C 122.396 65.529,122.305 65.154,122.251 64.833 C 122.158 64.275,122.063 63.846,121.993 63.667 C 121.975 63.621,121.973 63.515,121.989 63.432 C 122.005 63.349,121.957 63.236,121.884 63.182 C 121.775 63.101,121.316 61.971,121.100 61.250 C 120.853 60.426,119.167 57.000,119.007 57.000 C 118.934 57.000,118.781 56.775,118.667 56.500 C 118.553 56.225,118.394 56.000,118.313 56.000 C 118.233 56.000,118.167 55.896,118.167 55.768 C 118.167 55.640,118.043 55.488,117.893 55.431 C 117.742 55.373,117.657 55.287,117.704 55.241 C 117.751 55.194,117.555 54.903,117.269 54.595 C 115.959 53.181,114.989 52.216,114.491 51.833 C 114.193 51.604,113.832 51.285,113.688 51.125 C 113.544 50.965,113.357 50.833,113.273 50.833 C 113.189 50.833,113.013 50.702,112.881 50.542 C 112.725 50.351,112.679 50.336,112.750 50.500 C 112.835 50.696,112.810 50.692,112.637 50.483 C 112.515 50.336,112.247 50.162,112.041 50.096 C 111.835 50.031,111.667 49.908,111.667 49.822 C 111.667 49.737,111.610 49.680,111.542 49.696 C 111.334 49.744,110.500 49.291,110.500 49.130 C 110.500 49.048,110.434 49.021,110.353 49.071 C 110.273 49.121,109.867 48.981,109.452 48.760 C 109.037 48.539,108.653 48.403,108.598 48.457 C 108.544 48.511,108.500 48.468,108.500 48.361 C 108.500 48.254,108.444 48.176,108.375 48.186 C 108.306 48.197,108.194 48.188,108.125 48.166 C 107.961 48.112,107.871 48.092,107.085 47.936 C 106.719 47.863,106.345 47.757,106.254 47.701 C 106.163 47.645,105.975 47.580,105.836 47.556 C 105.697 47.532,105.171 47.431,104.667 47.331 C 104.162 47.231,103.563 47.145,103.333 47.139 C 103.104 47.134,102.847 47.087,102.761 47.036 C 102.537 46.902,96.489 46.883,96.407 47.016 M149.867 47.022 C 149.803 47.080,149.195 47.174,148.517 47.231 C 147.838 47.288,147.194 47.408,147.085 47.499 C 146.975 47.590,146.838 47.616,146.780 47.558 C 146.722 47.500,146.579 47.531,146.462 47.627 C 146.346 47.723,145.950 47.849,145.583 47.906 C 145.217 47.963,144.893 48.079,144.864 48.162 C 144.835 48.246,144.704 48.273,144.573 48.223 C 144.441 48.172,144.333 48.218,144.333 48.325 C 144.333 48.432,144.250 48.468,144.148 48.405 C 144.046 48.342,143.915 48.358,143.856 48.440 C 143.701 48.659,142.785 49.064,142.542 49.022 C 142.427 49.002,142.333 49.052,142.333 49.133 C 142.333 49.277,141.726 49.614,141.435 49.630 C 141.354 49.634,141.241 49.706,141.185 49.790 C 141.129 49.873,140.746 50.123,140.333 50.346 C 139.921 50.568,139.522 50.845,139.448 50.962 C 139.374 51.078,139.250 51.135,139.174 51.088 C 139.097 51.041,138.992 51.114,138.939 51.251 C 138.887 51.388,138.732 51.500,138.594 51.500 C 138.457 51.500,138.261 51.656,138.159 51.848 C 138.057 52.039,137.937 52.159,137.892 52.114 C 137.848 52.070,137.556 52.288,137.244 52.600 C 136.933 52.912,136.596 53.167,136.496 53.167 C 136.396 53.167,136.353 53.231,136.402 53.309 C 136.508 53.481,135.772 54.205,135.613 54.085 C 135.551 54.038,135.536 54.049,135.580 54.108 C 135.625 54.168,135.394 54.468,135.068 54.775 C 134.743 55.082,134.538 55.333,134.613 55.334 C 134.688 55.334,134.545 55.510,134.295 55.725 C 134.044 55.941,133.882 56.160,133.934 56.212 C 133.986 56.264,133.872 56.390,133.681 56.492 C 133.490 56.595,133.333 56.777,133.333 56.898 C 133.333 57.019,133.146 57.320,132.917 57.568 C 132.688 57.815,132.500 58.120,132.500 58.247 C 132.500 58.373,132.406 58.576,132.292 58.699 C 132.097 58.907,131.437 60.107,131.400 60.320 C 131.334 60.697,130.941 61.500,130.822 61.500 C 130.742 61.500,130.720 61.612,130.773 61.750 C 130.826 61.887,130.787 62.000,130.686 62.000 C 130.586 62.000,130.456 62.302,130.397 62.670 C 130.338 63.039,130.223 63.382,130.142 63.432 C 130.061 63.482,130.038 63.593,130.090 63.678 C 130.143 63.764,130.094 63.833,129.982 63.833 C 129.870 63.833,129.821 63.876,129.874 63.929 C 129.926 63.982,129.896 64.263,129.807 64.554 C 129.718 64.845,129.629 65.158,129.609 65.250 C 129.590 65.342,129.520 65.504,129.453 65.610 C 129.387 65.716,129.378 65.923,129.434 66.068 C 129.490 66.214,129.454 66.333,129.354 66.333 C 129.251 66.333,129.198 66.549,129.231 66.833 C 129.263 67.108,129.241 67.333,129.181 67.333 C 129.121 67.333,129.064 67.465,129.054 67.625 C 129.045 67.785,128.983 68.292,128.916 68.750 C 128.769 69.767,128.761 74.767,128.904 75.917 C 129.018 76.823,129.124 77.417,129.172 77.417 C 129.189 77.417,129.219 77.604,129.239 77.833 C 129.260 78.063,129.333 78.378,129.403 78.534 C 129.473 78.690,129.481 78.896,129.422 78.992 C 129.362 79.088,129.388 79.167,129.480 79.167 C 129.571 79.167,129.644 79.298,129.641 79.458 C 129.634 79.842,129.772 80.405,129.966 80.781 C 130.052 80.947,130.088 81.177,130.047 81.292 C 130.006 81.406,130.053 81.500,130.153 81.500 C 130.252 81.500,130.324 81.556,130.314 81.625 C 130.303 81.694,130.312 81.806,130.334 81.875 C 130.357 81.944,130.394 82.075,130.417 82.167 C 130.440 82.258,130.473 82.352,130.492 82.375 C 130.510 82.398,130.552 82.559,130.585 82.733 C 130.618 82.907,130.743 83.113,130.864 83.189 C 130.985 83.266,131.030 83.329,130.965 83.331 C 130.820 83.334,131.985 85.664,132.284 85.970 C 132.403 86.091,132.500 86.290,132.500 86.411 C 132.500 86.532,132.617 86.676,132.761 86.731 C 132.904 86.786,132.979 86.899,132.928 86.981 C 132.877 87.064,132.952 87.177,133.095 87.231 C 133.238 87.286,133.311 87.401,133.258 87.487 C 133.205 87.573,133.312 87.749,133.496 87.879 C 133.680 88.008,133.792 88.153,133.744 88.201 C 133.696 88.249,133.846 88.413,134.078 88.565 C 134.310 88.717,134.500 88.912,134.500 89.000 C 134.500 89.087,135.100 89.758,135.833 90.490 C 136.567 91.222,137.167 91.781,137.167 91.731 C 137.167 91.682,137.389 91.853,137.661 92.112 C 138.350 92.768,138.653 93.015,138.705 92.962 C 138.764 92.905,139.886 93.689,140.019 93.881 C 140.075 93.962,140.150 94.015,140.185 93.999 C 140.325 93.935,141.167 94.396,141.167 94.537 C 141.167 94.619,141.242 94.640,141.333 94.583 C 141.425 94.527,141.500 94.543,141.500 94.620 C 141.500 94.732,142.253 95.127,142.667 95.234 C 142.712 95.245,142.862 95.327,143.000 95.414 C 143.137 95.502,143.397 95.597,143.576 95.624 C 143.755 95.652,143.943 95.729,143.993 95.796 C 144.043 95.862,144.196 95.946,144.333 95.982 C 145.574 96.308,146.431 96.588,146.504 96.691 C 146.552 96.758,147.077 96.897,147.670 96.999 C 148.264 97.100,148.938 97.221,149.167 97.267 C 149.396 97.313,149.808 97.392,150.083 97.443 C 150.906 97.595,157.736 97.642,157.917 97.497 C 158.008 97.423,158.271 97.364,158.500 97.366 C 159.199 97.373,161.220 96.992,161.750 96.753 C 162.025 96.630,162.475 96.492,162.750 96.448 C 163.025 96.403,163.475 96.272,163.750 96.157 C 164.025 96.041,164.344 95.962,164.458 95.981 C 164.573 95.999,164.667 95.951,164.667 95.874 C 164.667 95.726,165.827 95.241,166.042 95.300 C 166.110 95.318,166.167 95.264,166.167 95.180 C 166.167 95.095,166.429 94.939,166.750 94.833 C 167.071 94.727,167.333 94.559,167.333 94.459 C 167.333 94.359,167.379 94.323,167.434 94.379 C 167.490 94.434,167.689 94.337,167.876 94.162 C 168.064 93.988,168.281 93.884,168.359 93.932 C 168.436 93.980,168.500 93.940,168.500 93.843 C 168.500 93.746,168.605 93.667,168.733 93.667 C 168.860 93.667,169.142 93.480,169.358 93.253 C 169.573 93.025,169.816 92.838,169.897 92.836 C 169.978 92.835,170.184 92.672,170.355 92.474 C 170.527 92.277,170.667 92.172,170.667 92.241 C 170.667 92.420,173.508 89.525,173.971 88.875 C 174.183 88.577,174.275 88.333,174.175 88.333 C 174.076 88.333,173.733 88.064,173.414 87.736 C 173.095 87.407,172.833 87.179,172.833 87.229 C 172.833 87.279,172.530 87.023,172.160 86.660 C 171.790 86.297,171.443 86.000,171.390 86.000 C 171.287 86.000,170.137 84.942,169.227 84.009 C 168.919 83.693,168.667 83.494,168.667 83.566 C 168.667 83.638,168.332 83.353,167.923 82.932 C 167.514 82.511,167.104 82.167,167.012 82.167 C 166.920 82.167,166.764 82.016,166.666 81.831 C 166.450 81.429,166.109 81.565,165.251 82.390 C 164.500 83.113,164.210 83.333,164.007 83.333 C 163.911 83.333,163.833 83.408,163.833 83.500 C 163.833 83.592,163.732 83.667,163.609 83.667 C 163.486 83.667,163.249 83.817,163.083 84.000 C 162.917 84.183,162.681 84.333,162.558 84.333 C 162.434 84.333,162.333 84.396,162.333 84.473 C 162.333 84.653,161.481 85.069,161.208 85.022 C 161.094 85.002,161.000 85.058,161.000 85.146 C 161.000 85.277,160.204 85.634,159.625 85.764 C 159.556 85.779,159.481 85.811,159.458 85.834 C 159.435 85.857,159.267 85.900,159.083 85.929 C 158.900 85.959,158.450 86.063,158.083 86.161 C 156.311 86.635,152.508 86.645,151.283 86.179 C 151.036 86.085,150.833 86.053,150.833 86.108 C 150.833 86.163,150.740 86.137,150.625 86.050 C 150.510 85.963,150.230 85.882,150.002 85.870 C 149.775 85.858,149.562 85.770,149.530 85.674 C 149.498 85.578,149.343 85.500,149.186 85.500 C 149.029 85.500,148.810 85.410,148.700 85.300 C 148.590 85.190,148.500 85.155,148.500 85.223 C 148.500 85.291,148.336 85.193,148.135 85.007 C 147.935 84.820,147.560 84.574,147.302 84.459 C 147.044 84.345,146.833 84.195,146.833 84.126 C 146.833 84.057,146.740 83.999,146.625 83.998 C 146.510 83.997,146.154 83.695,145.833 83.326 C 145.512 82.957,145.044 82.419,144.792 82.131 C 144.540 81.843,144.333 81.508,144.333 81.387 C 144.333 81.266,144.266 81.167,144.183 81.167 C 144.033 81.167,143.598 80.194,143.643 79.958 C 143.656 79.890,143.601 79.833,143.522 79.833 C 143.382 79.833,142.884 78.317,142.981 78.185 C 143.007 78.150,142.959 78.075,142.873 78.019 C 142.788 77.963,142.668 77.710,142.606 77.458 L 142.494 77.000 159.561 77.000 L 176.628 77.000 176.577 73.125 C 176.550 70.994,176.489 69.025,176.444 68.750 C 176.398 68.475,176.276 67.800,176.172 67.250 C 176.068 66.700,175.954 66.100,175.920 65.917 C 175.886 65.733,175.807 65.358,175.744 65.083 C 175.682 64.808,175.615 64.471,175.595 64.333 C 175.576 64.196,175.515 63.971,175.459 63.833 C 175.369 63.610,174.963 62.378,174.910 62.167 C 174.849 61.926,174.478 61.045,174.328 60.785 C 174.233 60.621,174.196 60.421,174.245 60.341 C 174.295 60.261,174.256 60.169,174.159 60.136 C 174.009 60.086,173.902 59.803,173.846 59.304 C 173.839 59.241,173.734 59.091,173.612 58.969 C 173.390 58.747,173.103 58.260,172.548 57.162 C 172.384 56.838,172.048 56.355,171.801 56.090 C 171.553 55.824,171.384 55.552,171.425 55.487 C 171.465 55.422,171.386 55.325,171.249 55.273 C 171.112 55.220,171.000 55.076,171.000 54.953 C 171.000 54.830,170.769 54.559,170.487 54.350 C 170.205 54.141,170.008 53.936,170.050 53.895 C 170.135 53.809,168.811 52.422,168.641 52.419 C 168.581 52.418,168.210 52.098,167.816 51.708 C 167.423 51.319,167.003 51.000,166.884 51.000 C 166.764 51.000,166.667 50.925,166.667 50.833 C 166.667 50.742,166.562 50.667,166.434 50.667 C 166.307 50.667,166.157 50.549,166.102 50.406 C 166.047 50.263,165.938 50.185,165.860 50.234 C 165.781 50.282,165.567 50.182,165.385 50.012 C 164.934 49.592,164.066 49.156,163.938 49.284 C 163.880 49.342,163.833 49.297,163.833 49.185 C 163.833 49.072,163.765 49.023,163.681 49.075 C 163.597 49.126,163.503 49.092,163.471 48.997 C 163.440 48.903,163.191 48.786,162.919 48.736 C 162.647 48.687,162.376 48.569,162.318 48.476 C 162.260 48.382,162.184 48.319,162.148 48.336 C 162.045 48.385,160.101 47.806,159.917 47.671 C 159.825 47.603,159.037 47.456,158.167 47.342 C 157.296 47.229,156.471 47.095,156.333 47.043 C 155.983 46.913,150.009 46.893,149.867 47.022 M331.167 48.494 C 330.762 48.637,328.628 48.921,328.208 48.887 C 328.094 48.878,328.000 48.942,328.000 49.029 C 328.000 49.116,327.869 49.166,327.708 49.140 C 327.548 49.113,327.323 49.150,327.208 49.222 C 327.094 49.294,327.000 49.315,327.000 49.268 C 327.000 49.222,326.747 49.289,326.438 49.419 C 326.129 49.548,325.829 49.606,325.771 49.549 C 325.714 49.491,325.667 49.530,325.667 49.634 C 325.667 49.738,325.554 49.780,325.417 49.727 C 325.279 49.674,325.167 49.706,325.167 49.797 C 325.167 49.945,324.722 50.125,324.017 50.265 C 323.888 50.290,323.721 50.410,323.644 50.531 C 323.568 50.651,323.504 50.692,323.503 50.621 C 323.499 50.457,322.458 50.983,322.294 51.232 C 322.227 51.333,322.171 51.357,322.169 51.285 C 322.168 51.213,322.005 51.304,321.808 51.488 C 321.611 51.671,321.385 51.782,321.307 51.734 C 321.228 51.685,321.122 51.756,321.070 51.891 C 321.018 52.026,320.762 52.225,320.500 52.333 C 320.238 52.442,319.983 52.636,319.934 52.765 C 319.884 52.894,319.758 53.000,319.654 53.000 C 319.439 53.000,319.138 53.261,317.446 54.917 C 316.791 55.558,316.271 56.138,316.293 56.205 C 316.314 56.272,316.144 56.450,315.916 56.599 C 315.687 56.749,315.500 56.968,315.500 57.085 C 315.500 57.202,315.383 57.343,315.239 57.398 C 315.096 57.453,315.021 57.565,315.072 57.648 C 315.123 57.731,315.053 57.841,314.916 57.894 C 314.779 57.947,314.667 58.104,314.667 58.245 C 314.667 58.385,314.587 58.500,314.490 58.500 C 314.393 58.500,314.360 58.575,314.417 58.667 C 314.473 58.758,314.436 58.833,314.333 58.833 C 314.231 58.833,314.193 58.908,314.250 59.000 C 314.307 59.092,314.274 59.167,314.177 59.167 C 314.079 59.167,314.000 59.274,314.000 59.405 C 314.000 59.536,313.882 59.761,313.738 59.905 C 313.594 60.049,313.520 60.167,313.574 60.167 C 313.627 60.167,313.496 60.448,313.282 60.792 C 312.803 61.560,312.661 61.878,312.427 62.708 C 312.355 62.960,312.230 63.167,312.149 63.167 C 312.067 63.167,312.000 63.312,312.000 63.489 C 312.000 63.667,311.913 64.023,311.807 64.281 C 311.700 64.539,311.629 64.844,311.647 64.958 C 311.666 65.073,311.615 65.167,311.535 65.167 C 311.455 65.167,311.379 65.260,311.368 65.375 C 311.356 65.490,311.266 65.921,311.166 66.333 C 311.066 66.746,310.958 67.271,310.926 67.500 C 310.893 67.729,310.819 68.246,310.762 68.649 C 310.704 69.052,310.619 69.443,310.572 69.518 C 310.433 69.743,310.453 75.682,310.596 76.583 C 310.669 77.042,310.734 77.567,310.740 77.750 C 310.747 77.933,310.812 78.177,310.886 78.292 C 310.960 78.406,310.982 78.561,310.935 78.636 C 310.889 78.711,310.961 79.091,311.095 79.480 C 311.229 79.869,311.354 80.370,311.372 80.594 C 311.391 80.817,311.469 81.000,311.546 81.000 C 311.623 81.000,311.645 81.067,311.594 81.149 C 311.543 81.231,311.613 81.513,311.750 81.774 C 311.887 82.036,312.044 82.494,312.101 82.792 C 312.158 83.090,312.270 83.333,312.352 83.333 C 312.433 83.333,312.502 83.465,312.505 83.625 C 312.508 83.785,312.618 84.059,312.750 84.233 C 312.882 84.407,312.950 84.613,312.901 84.691 C 312.853 84.769,312.884 84.833,312.970 84.833 C 313.056 84.833,313.405 85.396,313.745 86.083 C 314.084 86.771,314.443 87.333,314.542 87.333 C 314.641 87.333,314.676 87.380,314.619 87.437 C 314.562 87.493,314.606 87.641,314.716 87.764 C 315.027 88.112,315.225 88.369,315.670 88.999 C 315.896 89.319,316.794 90.270,317.665 91.113 C 319.668 93.049,319.832 93.194,319.839 93.042 C 319.842 92.973,319.935 93.030,320.047 93.169 C 320.159 93.307,320.456 93.512,320.708 93.623 C 320.960 93.735,321.167 93.903,321.167 93.996 C 321.167 94.090,321.274 94.167,321.405 94.167 C 321.536 94.167,321.761 94.285,321.905 94.429 C 322.049 94.573,322.167 94.646,322.167 94.591 C 322.167 94.478,322.973 94.973,323.304 95.290 C 323.425 95.405,323.652 95.500,323.808 95.500 C 323.965 95.500,324.259 95.617,324.463 95.759 C 324.667 95.902,324.834 95.958,324.836 95.884 C 324.837 95.811,324.895 95.840,324.965 95.949 C 325.035 96.059,325.349 96.194,325.664 96.250 C 325.979 96.305,326.321 96.421,326.425 96.507 C 326.529 96.593,326.663 96.614,326.724 96.554 C 326.784 96.494,326.833 96.519,326.833 96.611 C 326.833 96.703,326.927 96.784,327.042 96.792 C 327.156 96.800,327.438 96.854,327.667 96.912 C 327.896 96.970,328.382 97.057,328.747 97.104 C 329.113 97.152,329.503 97.267,329.614 97.359 C 329.726 97.452,329.975 97.478,330.167 97.417 C 330.359 97.356,330.606 97.380,330.716 97.471 C 330.993 97.699,338.743 97.614,339.032 97.380 C 339.203 97.242,340.335 97.004,341.194 96.927 C 341.256 96.921,341.357 96.866,341.419 96.803 C 341.482 96.741,341.638 96.730,341.766 96.779 C 341.895 96.829,342.000 96.798,342.000 96.711 C 342.000 96.624,342.412 96.454,342.917 96.333 C 343.421 96.212,343.833 96.046,343.833 95.964 C 343.833 95.881,343.909 95.860,344.001 95.917 C 344.094 95.975,344.287 95.903,344.431 95.759 C 344.576 95.615,344.762 95.540,344.847 95.592 C 344.931 95.644,345.000 95.602,345.000 95.500 C 345.000 95.398,345.075 95.360,345.167 95.417 C 345.258 95.473,345.333 95.436,345.333 95.333 C 345.333 95.231,345.408 95.193,345.500 95.250 C 345.592 95.307,345.667 95.279,345.667 95.189 C 345.667 95.099,345.929 94.939,346.250 94.833 C 346.571 94.727,346.833 94.578,346.833 94.501 C 346.833 94.358,347.986 93.586,348.201 93.584 C 348.266 93.584,348.440 93.433,348.589 93.250 C 348.737 93.067,348.809 93.029,348.750 93.167 C 348.679 93.330,348.725 93.316,348.881 93.125 C 349.013 92.965,349.203 92.833,349.304 92.833 C 349.405 92.833,349.569 92.683,349.667 92.500 C 349.765 92.317,349.942 92.167,350.061 92.167 C 350.180 92.167,350.534 91.885,350.847 91.542 C 351.160 91.198,351.567 90.830,351.750 90.724 C 351.933 90.618,352.063 90.443,352.038 90.336 C 352.012 90.229,352.057 90.182,352.137 90.232 C 352.218 90.281,352.444 90.137,352.640 89.911 C 352.837 89.685,352.958 89.500,352.909 89.500 C 352.860 89.500,352.974 89.335,353.162 89.133 L 353.504 88.766 352.813 88.175 C 352.433 87.849,351.857 87.321,351.534 87.000 C 351.211 86.679,350.886 86.417,350.811 86.417 C 350.736 86.417,350.452 86.173,350.180 85.875 C 349.908 85.577,349.610 85.333,349.518 85.333 C 349.425 85.333,349.278 85.204,349.189 85.046 C 349.050 84.797,348.893 84.897,348.010 85.796 C 347.450 86.367,346.956 86.833,346.913 86.833 C 346.869 86.833,346.689 86.965,346.512 87.125 C 345.995 87.594,345.687 87.833,345.599 87.833 C 345.554 87.833,345.314 88.022,345.066 88.252 C 344.818 88.482,344.581 88.636,344.539 88.595 C 344.498 88.554,344.308 88.666,344.117 88.843 C 343.927 89.021,343.672 89.167,343.552 89.167 C 343.432 89.167,343.333 89.254,343.333 89.361 C 343.333 89.468,343.287 89.509,343.230 89.452 C 343.173 89.396,343.018 89.458,342.885 89.591 C 342.752 89.724,342.498 89.833,342.321 89.833 C 342.145 89.833,342.000 89.921,342.000 90.028 C 342.000 90.135,341.951 90.173,341.890 90.113 C 341.830 90.052,341.699 90.067,341.599 90.146 C 341.333 90.356,340.118 90.741,339.875 90.693 C 339.760 90.671,339.667 90.720,339.667 90.803 C 339.667 91.089,336.478 91.500,334.250 91.501 C 332.620 91.502,329.725 91.089,329.385 90.807 C 329.273 90.714,329.109 90.682,329.022 90.737 C 328.934 90.791,328.837 90.762,328.806 90.673 C 328.775 90.583,328.583 90.484,328.379 90.454 C 328.175 90.423,327.957 90.346,327.893 90.282 C 327.830 90.219,327.640 90.167,327.472 90.167 C 327.304 90.167,327.167 90.097,327.167 90.011 C 327.167 89.853,326.519 89.574,326.292 89.634 C 326.223 89.652,326.167 89.592,326.167 89.500 C 326.167 89.408,326.110 89.347,326.042 89.365 C 325.850 89.413,324.667 88.654,324.667 88.484 C 324.667 88.401,324.557 88.333,324.423 88.333 C 324.288 88.333,324.099 88.184,324.001 88.002 C 323.903 87.819,323.761 87.688,323.684 87.710 C 323.514 87.759,321.833 86.081,321.833 85.862 C 321.833 85.776,321.643 85.581,321.411 85.429 C 321.179 85.276,321.029 85.088,321.077 85.010 C 321.125 84.932,321.053 84.825,320.916 84.773 C 320.779 84.720,320.667 84.574,320.667 84.448 C 320.667 84.322,320.518 84.084,320.337 83.920 C 320.156 83.756,320.048 83.557,320.097 83.478 C 320.146 83.398,320.108 83.333,320.013 83.333 C 319.918 83.333,319.793 83.146,319.735 82.917 C 319.678 82.688,319.556 82.500,319.464 82.500 C 319.373 82.500,319.339 82.392,319.389 82.261 C 319.440 82.129,319.406 81.997,319.315 81.966 C 319.223 81.936,319.121 81.762,319.087 81.580 C 319.053 81.399,319.011 81.212,318.993 81.167 C 318.975 81.121,318.969 81.027,318.980 80.958 C 318.991 80.890,318.927 80.833,318.839 80.833 C 318.750 80.833,318.720 80.721,318.773 80.583 C 318.826 80.446,318.798 80.333,318.712 80.333 C 318.626 80.333,318.549 80.240,318.541 80.125 C 318.515 79.745,318.359 79.192,318.187 78.871 C 318.094 78.697,318.060 78.392,318.111 78.194 C 318.163 77.995,318.134 77.833,318.047 77.833 C 317.960 77.833,317.887 77.740,317.886 77.625 C 317.884 77.510,317.827 77.023,317.759 76.542 L 317.635 75.667 336.228 75.667 C 353.773 75.667,354.829 75.650,354.958 75.375 C 355.103 75.064,355.091 72.472,354.940 71.500 C 354.890 71.179,354.806 70.287,354.753 69.518 C 354.700 68.748,354.613 68.048,354.559 67.961 C 354.505 67.874,354.465 67.511,354.470 67.154 C 354.475 66.798,354.414 66.466,354.334 66.417 C 354.185 66.325,353.745 64.579,353.778 64.208 C 353.788 64.094,353.726 64.000,353.641 64.000 C 353.555 64.000,353.501 63.906,353.519 63.792 C 353.538 63.677,353.466 63.372,353.360 63.114 C 353.254 62.856,353.167 62.542,353.167 62.416 C 353.167 62.290,353.090 62.139,352.997 62.082 C 352.904 62.024,352.871 61.907,352.924 61.822 C 352.977 61.736,352.940 61.667,352.843 61.667 C 352.746 61.667,352.683 61.610,352.702 61.542 C 352.722 61.473,352.649 61.258,352.541 61.064 C 352.433 60.869,352.392 60.663,352.450 60.605 C 352.508 60.547,352.464 60.500,352.351 60.500 C 352.239 60.500,352.189 60.431,352.241 60.348 C 352.293 60.264,352.256 60.169,352.159 60.136 C 352.061 60.104,351.960 59.966,351.933 59.830 C 351.832 59.315,351.502 58.667,351.341 58.667 C 351.248 58.667,351.126 58.479,351.068 58.250 C 351.011 58.021,350.897 57.833,350.815 57.833 C 350.734 57.833,350.667 57.725,350.667 57.592 C 350.667 57.459,350.535 57.273,350.375 57.180 C 350.215 57.087,350.158 57.008,350.250 57.005 C 350.342 57.002,350.199 56.812,349.932 56.583 C 349.666 56.354,349.500 56.167,349.564 56.167 C 349.730 56.167,349.395 55.780,348.214 54.610 C 346.804 53.213,346.372 52.833,346.190 52.833 C 346.105 52.833,345.992 52.721,345.940 52.583 C 345.887 52.446,345.737 52.333,345.606 52.333 C 345.476 52.333,345.324 52.216,345.269 52.073 C 345.214 51.929,345.098 51.856,345.011 51.910 C 344.925 51.963,344.793 51.904,344.719 51.778 C 344.567 51.520,343.817 51.077,343.625 51.131 C 343.556 51.151,343.500 51.092,343.500 51.000 C 343.500 50.908,343.350 50.833,343.167 50.833 C 342.983 50.833,342.833 50.754,342.833 50.657 C 342.833 50.560,342.767 50.521,342.686 50.572 C 342.604 50.622,342.452 50.559,342.346 50.432 C 342.241 50.305,341.895 50.153,341.577 50.093 C 341.260 50.034,341.000 49.905,341.000 49.808 C 341.000 49.711,340.887 49.674,340.750 49.727 C 340.612 49.780,340.500 49.750,340.500 49.661 C 340.500 49.573,340.444 49.509,340.375 49.520 C 340.306 49.531,340.212 49.525,340.167 49.507 C 340.084 49.475,339.689 49.375,339.292 49.287 C 339.177 49.261,339.008 49.196,338.917 49.143 C 338.769 49.056,337.973 48.929,335.333 48.572 C 333.973 48.388,331.591 48.343,331.167 48.494 M303.927 48.938 C 303.475 49.053,303.044 49.110,302.969 49.064 C 302.894 49.018,302.740 49.039,302.625 49.110 C 302.510 49.182,302.342 49.257,302.250 49.277 C 302.158 49.297,301.907 49.353,301.691 49.401 C 301.476 49.448,301.206 49.565,301.093 49.659 C 300.979 49.753,300.833 49.777,300.767 49.712 C 300.702 49.646,300.593 49.683,300.525 49.792 C 300.458 49.902,300.239 50.017,300.039 50.047 C 299.839 50.078,299.623 50.154,299.560 50.218 C 299.496 50.281,299.307 50.333,299.139 50.333 C 298.971 50.333,298.833 50.394,298.833 50.469 C 298.833 50.543,298.571 50.707,298.250 50.833 C 297.929 50.959,297.667 51.128,297.667 51.208 C 297.667 51.288,297.600 51.312,297.517 51.261 C 297.435 51.210,297.323 51.285,297.269 51.428 C 297.214 51.571,297.098 51.644,297.011 51.590 C 296.925 51.537,296.776 51.626,296.682 51.788 C 296.587 51.951,296.508 52.010,296.505 51.921 C 296.502 51.832,296.382 51.927,296.239 52.132 C 296.095 52.338,295.919 52.469,295.847 52.425 C 295.775 52.381,295.568 52.511,295.385 52.714 C 294.866 53.293,294.183 53.833,293.971 53.833 C 293.865 53.833,293.823 53.878,293.878 53.933 C 293.932 53.988,293.541 54.471,293.007 55.007 C 292.473 55.542,292.073 56.017,292.118 56.062 C 292.162 56.107,292.042 56.242,291.850 56.362 C 291.657 56.482,291.500 56.677,291.500 56.795 C 291.500 56.914,291.387 57.054,291.250 57.106 C 291.112 57.159,291.000 57.307,291.000 57.434 C 291.000 57.562,290.869 57.804,290.708 57.971 C 290.548 58.138,290.232 58.636,290.006 59.078 C 289.780 59.520,289.511 59.966,289.408 60.069 C 289.305 60.172,289.139 60.480,289.040 60.753 C 288.904 61.127,288.856 59.796,288.846 55.375 L 288.833 49.500 285.167 49.500 L 281.500 49.500 281.500 73.042 L 281.500 96.583 285.175 96.583 L 288.850 96.583 288.823 85.640 C 288.808 79.621,288.833 74.633,288.879 74.557 C 288.925 74.480,288.964 74.154,288.965 73.833 C 288.966 73.512,288.981 73.212,288.998 73.167 C 289.014 73.121,289.058 72.783,289.096 72.417 C 289.133 72.050,289.214 71.637,289.274 71.500 C 289.335 71.362,289.368 71.119,289.348 70.958 C 289.329 70.798,289.390 70.667,289.484 70.667 C 289.579 70.667,289.616 70.562,289.567 70.434 C 289.518 70.305,289.557 70.151,289.655 70.090 C 289.753 70.030,289.833 69.760,289.833 69.490 C 289.833 69.221,289.916 69.000,290.018 69.000 C 290.119 69.000,290.159 68.887,290.106 68.750 C 290.054 68.612,290.083 68.500,290.172 68.500 C 290.261 68.500,290.324 68.444,290.314 68.375 C 290.303 68.306,290.312 68.194,290.334 68.125 C 290.357 68.056,290.388 67.944,290.404 67.875 C 290.511 67.414,290.735 66.901,290.867 66.817 C 290.952 66.762,291.041 66.612,291.063 66.483 C 291.152 65.975,291.363 65.500,291.500 65.500 C 291.580 65.500,291.740 65.237,291.856 64.917 C 291.972 64.596,292.131 64.333,292.210 64.333 C 292.289 64.333,292.312 64.266,292.261 64.184 C 292.210 64.102,292.281 63.992,292.418 63.939 C 292.555 63.887,292.667 63.737,292.667 63.606 C 292.667 63.476,292.784 63.324,292.927 63.269 C 293.071 63.214,293.150 63.108,293.104 63.033 C 293.057 62.958,293.240 62.715,293.510 62.492 C 293.779 62.269,294.000 62.024,294.000 61.947 C 294.000 61.762,294.934 60.833,295.120 60.833 C 295.200 60.833,295.450 60.612,295.674 60.340 C 295.899 60.069,296.148 59.844,296.228 59.840 C 296.308 59.837,296.628 59.609,296.939 59.336 C 297.251 59.062,297.692 58.791,297.920 58.734 C 298.147 58.677,298.333 58.551,298.333 58.454 C 298.333 58.357,298.380 58.324,298.437 58.381 C 298.493 58.438,298.649 58.375,298.783 58.241 C 298.917 58.107,299.087 58.034,299.161 58.080 C 299.235 58.126,299.385 58.056,299.493 57.925 C 299.602 57.794,299.798 57.728,299.929 57.778 C 300.060 57.828,300.167 57.792,300.167 57.698 C 300.167 57.537,301.100 57.232,301.375 57.302 C 301.444 57.319,301.500 57.254,301.500 57.157 C 301.500 57.060,301.578 57.029,301.674 57.088 C 301.770 57.147,301.938 57.125,302.049 57.038 C 302.477 56.704,304.908 56.344,306.875 56.324 L 307.833 56.314 307.833 52.479 L 307.833 48.644 306.292 48.686 C 305.444 48.709,304.380 48.822,303.927 48.938 M251.070 49.014 C 250.894 49.081,250.502 49.099,250.198 49.056 C 249.895 49.012,249.546 49.059,249.424 49.161 C 249.302 49.262,249.138 49.326,249.059 49.303 C 248.799 49.227,246.258 49.697,245.750 49.916 C 245.164 50.169,244.149 50.414,243.932 50.356 C 243.849 50.334,243.732 50.394,243.673 50.489 C 243.614 50.585,243.161 50.740,242.667 50.833 C 242.172 50.927,241.717 51.084,241.657 51.183 C 241.596 51.281,241.517 51.351,241.481 51.337 C 241.411 51.309,241.178 51.386,240.417 51.689 C 240.142 51.798,239.849 51.871,239.765 51.851 C 239.682 51.832,239.564 51.896,239.503 51.995 C 239.442 52.094,239.210 52.209,238.988 52.252 C 238.766 52.295,238.561 52.402,238.531 52.489 C 238.502 52.576,238.371 52.607,238.239 52.556 C 237.958 52.448,237.893 53.247,238.169 53.418 C 238.263 53.476,238.290 53.601,238.231 53.697 C 238.172 53.792,238.204 53.920,238.302 53.981 C 238.400 54.041,238.519 54.307,238.567 54.572 C 238.615 54.838,238.726 55.126,238.814 55.214 C 238.902 55.302,238.934 55.477,238.886 55.604 C 238.837 55.730,238.873 55.833,238.964 55.833 C 239.122 55.833,239.272 56.248,239.443 57.163 C 239.486 57.390,239.581 57.615,239.654 57.663 C 239.728 57.711,239.839 57.912,239.900 58.109 C 240.020 58.494,240.209 58.515,240.770 58.206 C 240.964 58.099,241.160 58.048,241.204 58.093 C 241.249 58.138,241.377 58.065,241.488 57.931 C 241.600 57.796,241.798 57.728,241.929 57.778 C 242.060 57.828,242.167 57.786,242.167 57.684 C 242.167 57.583,242.237 57.500,242.322 57.500 C 242.408 57.500,242.689 57.413,242.947 57.306 C 243.206 57.199,243.454 57.104,243.500 57.095 C 243.546 57.086,243.677 57.019,243.792 56.946 C 243.906 56.873,244.000 56.853,244.000 56.901 C 244.000 56.949,244.331 56.846,244.735 56.673 C 245.139 56.500,245.518 56.407,245.577 56.466 C 245.636 56.525,245.737 56.493,245.801 56.394 C 245.901 56.238,247.943 55.689,248.917 55.556 C 249.100 55.531,249.775 55.431,250.417 55.333 C 252.410 55.031,257.632 55.111,258.500 55.457 C 258.637 55.512,258.900 55.576,259.083 55.599 C 260.085 55.724,262.311 56.619,262.875 57.124 C 263.035 57.268,263.167 57.331,263.167 57.264 C 263.167 56.798,266.164 59.680,266.524 60.493 C 266.647 60.772,266.805 61.000,266.874 61.000 C 266.943 61.000,266.988 61.056,266.974 61.125 C 266.960 61.194,267.087 61.550,267.255 61.917 C 267.424 62.283,267.545 62.647,267.525 62.726 C 267.505 62.804,267.556 62.954,267.638 63.059 C 267.773 63.231,267.870 63.546,268.108 64.583 C 268.150 64.767,268.224 65.942,268.274 67.194 L 268.363 69.472 267.723 69.313 C 267.371 69.225,267.008 69.136,266.917 69.114 C 266.825 69.092,266.663 69.020,266.557 68.953 C 266.450 68.887,266.244 68.878,266.098 68.934 C 265.953 68.990,265.833 68.965,265.833 68.879 C 265.833 68.793,265.740 68.718,265.625 68.713 C 265.510 68.708,265.154 68.650,264.833 68.583 C 264.512 68.517,264.137 68.461,264.000 68.458 C 263.862 68.456,263.657 68.381,263.544 68.292 C 263.430 68.203,263.217 68.176,263.070 68.232 C 262.923 68.288,262.716 68.278,262.610 68.210 C 262.504 68.142,262.229 68.074,262.000 68.061 C 261.771 68.047,261.583 68.021,261.583 68.004 C 261.583 67.911,258.672 67.647,256.583 67.549 C 253.805 67.420,252.392 67.461,249.667 67.753 C 249.071 67.816,248.452 67.877,248.292 67.887 C 248.131 67.897,248.000 67.956,248.000 68.018 C 248.000 68.080,247.831 68.136,247.625 68.143 C 246.857 68.165,246.577 68.197,246.333 68.289 C 246.013 68.410,245.835 68.462,245.386 68.562 C 245.186 68.607,244.867 68.726,244.677 68.828 C 244.488 68.929,244.333 68.962,244.333 68.902 C 244.333 68.842,244.209 68.895,244.058 69.021 C 243.906 69.147,243.737 69.240,243.683 69.228 C 243.628 69.216,243.396 69.285,243.167 69.380 C 242.938 69.476,242.682 69.538,242.599 69.518 C 242.515 69.498,242.395 69.566,242.332 69.669 C 242.234 69.827,241.974 69.924,241.484 69.987 C 241.429 69.994,241.211 70.150,241.000 70.333 C 240.789 70.517,240.526 70.667,240.417 70.667 C 240.308 70.667,240.083 70.817,239.917 71.000 C 239.751 71.183,239.532 71.333,239.431 71.333 C 239.330 71.333,239.153 71.483,239.039 71.667 C 238.924 71.850,238.771 72.000,238.699 72.000 C 238.543 72.000,236.667 73.793,236.667 73.942 C 236.667 73.998,236.512 74.179,236.322 74.343 C 236.133 74.507,235.983 74.703,235.990 74.779 C 235.996 74.855,235.833 75.142,235.628 75.417 C 235.423 75.692,235.247 75.954,235.238 76.000 C 235.229 76.046,235.122 76.308,235.001 76.583 C 234.879 76.858,234.792 77.140,234.806 77.208 C 234.821 77.277,234.755 77.333,234.659 77.333 C 234.564 77.333,234.502 77.427,234.522 77.542 C 234.542 77.656,234.458 78.087,234.334 78.500 C 233.561 81.091,233.574 84.490,234.368 87.333 C 234.483 87.746,234.616 88.121,234.664 88.167 C 234.711 88.212,234.773 88.357,234.802 88.488 C 234.830 88.619,235.004 88.938,235.188 89.197 C 235.372 89.455,235.477 89.667,235.422 89.667 C 235.366 89.667,235.473 89.831,235.660 90.031 C 235.847 90.232,236.000 90.495,236.000 90.615 C 236.000 90.735,236.066 90.833,236.146 90.833 C 236.227 90.833,236.577 91.246,236.924 91.750 C 237.489 92.570,237.880 93.002,237.566 92.458 C 237.500 92.344,237.707 92.513,238.027 92.833 C 238.347 93.154,238.820 93.567,239.080 93.750 C 239.339 93.933,239.689 94.215,239.859 94.375 C 240.028 94.535,240.185 94.660,240.208 94.651 C 240.351 94.598,241.167 95.084,241.167 95.221 C 241.167 95.313,241.212 95.343,241.268 95.287 C 241.324 95.231,241.653 95.365,242.000 95.583 C 242.347 95.802,242.676 95.935,242.732 95.879 C 242.788 95.824,242.833 95.865,242.833 95.972 C 242.833 96.079,242.890 96.154,242.958 96.139 C 243.114 96.105,244.025 96.345,244.250 96.479 C 244.342 96.533,244.454 96.583,244.500 96.588 C 244.546 96.593,244.846 96.688,245.167 96.798 C 245.826 97.024,246.735 97.186,247.292 97.177 C 247.498 97.173,247.667 97.231,247.667 97.304 C 247.667 97.467,248.539 97.512,251.583 97.506 C 255.167 97.500,255.220 97.497,255.450 97.305 C 255.569 97.207,255.667 97.163,255.667 97.209 C 255.667 97.255,256.135 97.184,256.708 97.052 C 257.281 96.920,257.881 96.812,258.042 96.812 C 258.202 96.813,258.333 96.754,258.333 96.683 C 258.333 96.612,258.746 96.454,259.250 96.333 C 259.754 96.212,260.167 96.038,260.167 95.946 C 260.167 95.853,260.212 95.824,260.268 95.879 C 260.324 95.935,260.653 95.802,261.000 95.583 C 261.347 95.365,261.676 95.231,261.732 95.287 C 261.788 95.343,261.833 95.301,261.833 95.194 C 261.833 95.087,261.927 95.000,262.042 95.000 C 262.156 94.999,262.508 94.779,262.823 94.509 C 263.139 94.240,263.458 94.057,263.533 94.104 C 263.608 94.150,263.714 94.071,263.769 93.927 C 263.824 93.784,263.955 93.667,264.061 93.667 C 264.167 93.667,264.351 93.509,264.471 93.317 C 264.592 93.125,264.734 93.012,264.789 93.067 C 264.843 93.121,265.112 92.922,265.385 92.624 C 265.659 92.327,265.819 92.195,265.741 92.331 C 265.663 92.466,266.083 92.095,266.674 91.504 C 267.266 90.914,267.740 90.390,267.728 90.340 C 267.715 90.291,267.847 90.106,268.019 89.929 C 268.327 89.615,268.333 89.677,268.333 93.054 L 268.333 96.500 271.756 96.500 L 275.178 96.500 275.160 80.669 C 275.151 71.962,275.092 64.807,275.030 64.768 C 274.968 64.730,274.923 64.391,274.930 64.016 C 274.937 63.640,274.882 63.333,274.809 63.333 C 274.735 63.333,274.720 63.108,274.775 62.833 C 274.836 62.529,274.806 62.333,274.698 62.333 C 274.600 62.333,274.523 62.202,274.525 62.042 C 274.531 61.656,274.345 60.819,274.204 60.595 C 274.142 60.497,274.113 60.285,274.140 60.125 C 274.166 59.965,274.103 59.833,274.001 59.833 C 273.898 59.833,273.857 59.764,273.910 59.678 C 273.962 59.593,273.929 59.476,273.836 59.418 C 273.743 59.361,273.667 59.168,273.667 58.990 C 273.667 58.812,273.600 58.667,273.518 58.667 C 273.436 58.667,273.324 58.550,273.270 58.408 C 273.202 58.232,273.237 58.189,273.377 58.273 C 273.498 58.346,273.483 58.274,273.340 58.098 C 273.021 57.705,272.751 57.239,272.350 56.387 C 272.170 56.004,271.868 55.608,271.679 55.507 C 271.491 55.406,271.355 55.260,271.377 55.182 C 271.423 55.017,269.223 52.833,269.011 52.833 C 268.933 52.833,268.826 52.721,268.773 52.583 C 268.720 52.446,268.581 52.333,268.464 52.333 C 268.346 52.333,268.032 52.146,267.766 51.916 C 267.499 51.687,267.181 51.500,267.057 51.500 C 266.934 51.500,266.833 51.421,266.833 51.323 C 266.833 51.226,266.758 51.193,266.667 51.250 C 266.575 51.307,266.500 51.274,266.500 51.177 C 266.500 51.079,266.367 51.000,266.204 51.000 C 266.041 51.000,265.751 50.890,265.559 50.756 C 265.367 50.622,265.163 50.559,265.105 50.617 C 265.047 50.675,265.000 50.645,265.000 50.550 C 265.000 50.456,264.456 50.247,263.792 50.087 C 263.127 49.927,262.501 49.730,262.400 49.648 C 262.298 49.567,261.737 49.456,261.151 49.402 C 260.566 49.348,260.011 49.256,259.918 49.197 C 259.565 48.974,251.609 48.809,251.070 49.014 M334.917 54.574 C 335.558 54.643,336.158 54.757,336.250 54.827 C 336.342 54.897,336.529 54.959,336.667 54.964 C 337.114 54.981,337.696 55.150,337.907 55.326 C 338.021 55.420,338.163 55.448,338.224 55.387 C 338.284 55.327,338.333 55.370,338.333 55.482 C 338.333 55.594,338.408 55.640,338.500 55.583 C 338.592 55.527,338.667 55.560,338.667 55.657 C 338.667 55.754,338.723 55.816,338.792 55.794 C 339.015 55.723,340.000 56.202,340.000 56.381 C 340.000 56.477,340.047 56.509,340.105 56.451 C 340.250 56.306,341.623 57.274,341.837 57.673 C 341.933 57.853,342.103 58.000,342.214 58.000 C 342.326 58.000,342.717 58.314,343.083 58.696 C 343.450 59.079,343.637 59.336,343.500 59.267 C 343.363 59.198,343.438 59.307,343.667 59.509 C 343.896 59.712,344.065 59.942,344.042 60.022 C 344.019 60.102,344.065 60.167,344.145 60.167 C 344.224 60.167,344.488 60.467,344.730 60.833 C 344.973 61.200,345.127 61.500,345.074 61.500 C 345.020 61.500,345.094 61.618,345.238 61.762 C 345.382 61.906,345.549 62.224,345.609 62.470 C 345.669 62.716,345.786 62.962,345.870 63.017 C 345.954 63.072,346.040 63.222,346.061 63.350 C 346.082 63.478,346.179 63.733,346.277 63.917 C 346.375 64.100,346.421 64.344,346.380 64.458 C 346.339 64.573,346.373 64.667,346.455 64.667 C 346.537 64.667,346.707 65.060,346.834 65.542 C 347.157 66.770,347.180 66.866,347.252 67.333 C 347.288 67.563,347.394 68.125,347.488 68.583 C 347.582 69.042,347.701 69.660,347.754 69.958 L 347.848 70.500 332.664 70.500 C 320.651 70.500,317.507 70.457,317.608 70.294 C 317.678 70.181,317.754 69.862,317.777 69.586 C 317.801 69.309,317.863 68.858,317.916 68.583 C 317.969 68.308,318.034 67.971,318.059 67.833 C 318.253 66.793,318.561 65.833,318.701 65.833 C 318.793 65.833,318.826 65.721,318.773 65.583 C 318.720 65.446,318.754 65.333,318.848 65.333 C 318.943 65.333,318.982 65.272,318.935 65.196 C 318.888 65.121,318.952 64.864,319.076 64.625 C 319.200 64.386,319.259 64.147,319.206 64.095 C 319.154 64.043,319.199 64.000,319.306 64.000 C 319.412 64.000,319.487 63.944,319.471 63.875 C 319.429 63.695,319.879 62.772,320.080 62.628 C 320.173 62.560,320.192 62.504,320.121 62.503 C 319.955 62.499,320.509 61.625,320.788 61.450 C 320.904 61.377,321.000 61.208,321.000 61.074 C 321.000 60.940,321.185 60.670,321.411 60.474 C 321.637 60.277,321.792 60.067,321.754 60.007 C 321.717 59.947,321.868 59.761,322.090 59.594 C 322.312 59.428,322.457 59.231,322.411 59.158 C 322.366 59.084,322.467 58.980,322.637 58.926 C 322.806 58.872,323.196 58.529,323.502 58.164 C 323.809 57.799,324.150 57.500,324.262 57.500 C 324.373 57.500,324.508 57.387,324.560 57.250 C 324.613 57.112,324.771 57.000,324.911 57.000 C 325.052 57.000,325.167 56.930,325.167 56.845 C 325.167 56.759,325.335 56.636,325.542 56.572 C 325.748 56.508,325.954 56.405,326.000 56.344 C 326.154 56.138,327.276 55.507,327.598 55.445 C 327.773 55.412,328.142 55.291,328.417 55.176 C 328.692 55.062,329.067 54.944,329.250 54.913 C 329.433 54.883,329.808 54.807,330.083 54.745 C 331.590 54.406,332.919 54.359,334.917 54.574 M101.250 58.183 C 101.708 58.273,102.215 58.348,102.375 58.350 C 102.535 58.352,102.667 58.428,102.667 58.518 C 102.667 58.608,102.760 58.666,102.875 58.647 C 103.163 58.600,103.973 58.950,104.274 59.251 C 104.412 59.388,104.622 59.500,104.742 59.500 C 104.862 59.500,105.283 59.819,105.677 60.208 C 106.071 60.598,106.340 60.804,106.274 60.667 C 106.208 60.529,106.251 60.562,106.369 60.739 C 106.487 60.917,106.752 61.225,106.958 61.425 C 107.165 61.625,107.333 61.870,107.333 61.969 C 107.333 62.069,107.465 62.227,107.625 62.320 C 107.785 62.413,107.855 62.492,107.780 62.495 C 107.704 62.498,107.761 62.618,107.905 62.762 C 108.049 62.906,108.167 63.157,108.167 63.320 C 108.167 63.482,108.315 63.787,108.497 63.996 C 108.678 64.205,108.789 64.436,108.744 64.510 C 108.698 64.583,108.739 64.691,108.833 64.750 C 108.928 64.809,108.962 64.926,108.910 65.012 C 108.857 65.097,108.898 65.167,109.000 65.167 C 109.102 65.167,109.140 65.242,109.083 65.333 C 109.027 65.425,109.039 65.594,109.110 65.708 C 109.182 65.823,109.258 65.992,109.279 66.083 C 109.300 66.175,109.424 66.681,109.553 67.208 L 109.790 68.167 99.418 68.167 L 89.046 68.167 89.092 67.792 C 89.166 67.181,89.504 65.794,89.627 65.598 C 89.690 65.498,89.755 65.324,89.772 65.211 C 89.830 64.826,90.248 64.000,90.384 64.000 C 90.459 64.000,90.473 63.925,90.417 63.833 C 90.360 63.742,90.378 63.667,90.457 63.667 C 90.535 63.667,90.691 63.414,90.803 63.105 C 90.915 62.796,91.230 62.309,91.503 62.023 C 91.776 61.737,92.000 61.435,92.000 61.352 C 92.000 61.269,92.281 60.970,92.625 60.687 C 92.969 60.404,93.381 60.059,93.542 59.920 C 93.702 59.780,93.897 59.667,93.974 59.667 C 94.052 59.667,94.251 59.516,94.418 59.332 C 94.584 59.148,94.755 59.033,94.799 59.076 C 94.842 59.120,95.034 59.045,95.226 58.911 C 95.417 58.777,95.745 58.667,95.954 58.667 C 96.163 58.667,96.333 58.587,96.333 58.490 C 96.333 58.393,96.412 58.362,96.507 58.421 C 96.603 58.480,96.772 58.454,96.882 58.362 C 97.300 58.017,99.865 57.912,101.250 58.183 M155.420 58.336 C 155.560 58.452,155.714 58.508,155.763 58.460 C 155.988 58.235,158.346 59.396,158.706 59.909 C 158.773 60.005,158.829 60.033,158.831 59.972 C 158.832 59.911,159.232 60.249,159.720 60.722 C 160.208 61.196,160.581 61.635,160.550 61.698 C 160.519 61.761,160.590 61.874,160.708 61.948 C 160.827 62.022,161.019 62.271,161.135 62.500 C 161.491 63.200,161.786 63.686,161.968 63.868 C 162.063 63.963,162.101 64.144,162.052 64.270 C 162.004 64.397,162.060 64.500,162.177 64.500 C 162.293 64.500,162.340 64.549,162.279 64.610 C 162.219 64.670,162.253 64.820,162.355 64.943 C 162.457 65.066,162.485 65.167,162.417 65.167 C 162.348 65.167,162.377 65.268,162.479 65.392 C 162.582 65.516,162.683 65.816,162.703 66.059 C 162.723 66.301,162.803 66.500,162.881 66.500 C 162.959 66.500,162.974 66.654,162.914 66.841 C 162.855 67.029,162.877 67.273,162.964 67.383 C 163.592 68.181,163.874 68.159,152.751 68.206 L 142.392 68.250 142.520 67.563 C 142.678 66.720,143.309 64.816,143.514 64.568 C 143.596 64.468,143.614 64.337,143.554 64.276 C 143.494 64.216,143.532 64.167,143.639 64.167 C 143.746 64.167,143.833 64.022,143.833 63.845 C 143.833 63.668,143.965 63.393,144.125 63.232 C 144.285 63.072,144.379 62.922,144.333 62.900 C 144.287 62.878,144.435 62.648,144.660 62.388 C 144.886 62.129,145.055 61.898,145.035 61.875 C 145.006 61.841,146.351 60.534,147.055 59.911 C 147.808 59.246,149.193 58.549,150.000 58.430 C 150.137 58.410,150.362 58.346,150.500 58.288 C 151.269 57.965,155.017 58.001,155.420 58.336 M259.500 72.994 C 260.279 73.090,261.107 73.191,261.339 73.219 C 261.571 73.246,261.837 73.316,261.931 73.374 C 262.025 73.432,262.248 73.457,262.426 73.428 C 262.604 73.400,262.825 73.421,262.917 73.475 C 263.008 73.529,263.233 73.593,263.417 73.618 C 263.600 73.642,264.012 73.713,264.333 73.775 C 264.654 73.838,265.010 73.873,265.125 73.854 C 265.240 73.835,265.333 73.890,265.333 73.978 C 265.333 74.066,265.465 74.116,265.625 74.090 C 265.785 74.064,265.992 74.088,266.083 74.142 C 266.175 74.196,266.362 74.264,266.500 74.292 C 266.637 74.321,266.900 74.375,267.083 74.413 C 268.609 74.726,268.532 74.540,268.454 77.763 C 268.391 80.380,268.328 81.069,268.053 82.167 C 267.995 82.396,267.921 82.729,267.887 82.908 C 267.798 83.377,266.954 85.000,266.799 85.000 C 266.726 85.000,266.667 85.096,266.667 85.214 C 266.667 85.619,263.649 88.882,263.361 88.788 C 263.296 88.767,263.065 88.916,262.847 89.119 C 262.628 89.322,262.386 89.449,262.308 89.401 C 262.230 89.353,262.167 89.381,262.167 89.463 C 262.167 89.624,261.332 90.077,261.125 90.029 C 261.056 90.013,261.000 90.075,261.000 90.167 C 261.000 90.258,260.906 90.334,260.792 90.334 C 260.677 90.335,260.369 90.447,260.108 90.583 C 259.846 90.720,259.571 90.794,259.497 90.748 C 259.423 90.702,259.337 90.736,259.306 90.822 C 259.275 90.909,259.045 91.017,258.794 91.062 C 258.544 91.107,258.250 91.199,258.141 91.266 C 258.033 91.333,257.750 91.406,257.514 91.427 C 257.277 91.449,257.083 91.484,257.083 91.505 C 257.083 91.526,256.896 91.569,256.667 91.600 C 256.438 91.632,255.762 91.731,255.167 91.821 C 253.795 92.028,250.047 91.913,249.735 91.655 C 249.608 91.549,249.393 91.505,249.257 91.557 C 249.122 91.609,248.966 91.580,248.912 91.493 C 248.858 91.405,248.606 91.333,248.351 91.333 C 248.097 91.333,247.837 91.281,247.773 91.218 C 247.710 91.154,247.507 91.079,247.323 91.051 C 247.138 91.023,246.597 90.738,246.121 90.417 C 245.644 90.096,245.160 89.833,245.044 89.833 C 244.928 89.833,244.833 89.758,244.833 89.667 C 244.833 89.575,244.762 89.500,244.674 89.500 C 244.451 89.500,242.500 87.580,242.500 87.360 C 242.500 87.261,242.336 87.027,242.135 86.840 C 241.935 86.653,241.822 86.500,241.886 86.500 C 241.949 86.500,241.854 86.225,241.674 85.890 C 241.494 85.554,241.386 85.217,241.433 85.140 C 241.481 85.063,241.445 85.000,241.353 85.000 C 241.261 85.000,241.214 84.852,241.249 84.670 C 241.284 84.489,241.251 84.302,241.175 84.255 C 240.979 84.134,241.006 80.959,241.205 80.710 C 241.296 80.597,241.327 80.391,241.274 80.252 C 241.221 80.113,241.250 80.000,241.339 80.000 C 241.427 80.000,241.486 79.944,241.468 79.875 C 241.400 79.607,241.702 78.667,241.856 78.667 C 241.946 78.667,241.973 78.592,241.917 78.500 C 241.860 78.408,241.892 78.333,241.987 78.333 C 242.082 78.333,242.207 78.146,242.265 77.917 C 242.322 77.688,242.436 77.500,242.518 77.500 C 242.600 77.500,242.648 77.442,242.625 77.372 C 242.574 77.217,244.433 75.333,244.637 75.333 C 244.717 75.333,244.916 75.185,245.080 75.004 C 245.244 74.823,245.436 74.711,245.508 74.755 C 245.580 74.799,245.664 74.759,245.695 74.666 C 245.726 74.573,245.933 74.462,246.155 74.419 C 246.377 74.376,246.602 74.275,246.654 74.195 C 246.780 74.002,247.764 73.679,248.954 73.440 C 249.065 73.417,249.204 73.352,249.261 73.294 C 249.319 73.237,249.472 73.230,249.602 73.280 C 249.731 73.330,249.935 73.290,250.053 73.191 C 250.172 73.093,250.786 72.970,251.417 72.918 C 252.049 72.866,252.582 72.807,252.602 72.787 C 252.711 72.677,258.295 72.845,259.500 72.994 " stroke="none" fill="#243374" fill-rule="evenodd"></path><path id="path1" d="M59.292 30.125 C 61.240 30.151,64.427 30.151,66.375 30.125 C 68.323 30.098,66.729 30.076,62.833 30.076 C 58.938 30.076,57.344 30.098,59.292 30.125 M283.375 49.458 C 284.360 49.487,285.973 49.487,286.958 49.458 C 287.944 49.428,287.137 49.404,285.167 49.404 C 283.196 49.404,282.390 49.428,283.375 49.458 M176.705 73.333 C 176.705 73.654,176.740 73.785,176.782 73.625 C 176.823 73.465,176.823 73.202,176.782 73.042 C 176.740 72.881,176.705 73.012,176.705 73.333 " stroke="none" fill="#5a6097" fill-rule="evenodd"></path><path id="path2" d="M325.125 70.458 C 329.273 70.483,336.060 70.483,340.208 70.458 C 344.356 70.433,340.962 70.413,332.667 70.413 C 324.371 70.413,320.977 70.433,325.125 70.458 " stroke="none" fill="#c4c4d7" fill-rule="evenodd"></path><path id="path3" d="" stroke="none" fill="#4c548e" fill-rule="evenodd"></path><path id="path4" d="M55.875 63.375 L 55.833 96.667 62.875 96.627 L 69.917 96.587 62.959 96.542 L 56.001 96.496 55.958 63.290 L 55.916 30.083 55.875 63.375 M195.875 39.625 C 198.235 39.651,202.098 39.651,204.458 39.625 C 206.819 39.599,204.887 39.577,200.167 39.577 C 195.446 39.577,193.515 39.599,195.875 39.625 M24.375 44.448 C 24.535 44.490,24.798 44.490,24.958 44.448 C 25.119 44.406,24.988 44.372,24.667 44.372 C 24.346 44.372,24.215 44.406,24.375 44.448 M99.042 46.953 C 99.294 46.991,99.706 46.991,99.958 46.953 C 100.210 46.915,100.004 46.883,99.500 46.883 C 98.996 46.883,98.790 46.915,99.042 46.953 M152.542 46.953 C 152.794 46.991,153.206 46.991,153.458 46.953 C 153.710 46.915,153.504 46.883,153.000 46.883 C 152.496 46.883,152.290 46.915,152.542 46.953 M307.905 52.500 C 307.905 54.654,307.929 55.535,307.958 54.458 C 307.987 53.381,307.987 51.619,307.958 50.542 C 307.929 49.465,307.905 50.346,307.905 52.500 M232.212 53.000 C 232.212 53.413,232.245 53.581,232.284 53.375 C 232.324 53.169,232.324 52.831,232.284 52.625 C 232.245 52.419,232.212 52.587,232.212 53.000 M135.906 53.875 L 135.417 54.417 135.958 53.927 C 136.256 53.658,136.500 53.414,136.500 53.385 C 136.500 53.257,136.362 53.370,135.906 53.875 M340.667 56.727 C 340.667 56.773,340.892 56.971,341.167 57.167 C 341.442 57.362,341.667 57.485,341.667 57.439 C 341.667 57.394,341.442 57.196,341.167 57.000 C 340.892 56.804,340.667 56.681,340.667 56.727 M226.409 67.375 L 225.750 68.083 226.458 67.425 C 226.848 67.062,227.167 66.743,227.167 66.716 C 227.167 66.590,227.022 66.716,226.409 67.375 M237.575 72.875 L 236.917 73.583 237.625 72.925 C 238.015 72.562,238.333 72.243,238.333 72.216 C 238.333 72.090,238.188 72.216,237.575 72.875 M310.385 73.083 C 310.386 73.633,310.417 73.838,310.454 73.539 C 310.491 73.239,310.490 72.789,310.452 72.539 C 310.414 72.288,310.384 72.533,310.385 73.083 M123.205 73.333 C 123.205 73.654,123.240 73.785,123.282 73.625 C 123.323 73.465,123.323 73.202,123.282 73.042 C 123.240 72.881,123.205 73.012,123.205 73.333 M355.045 74.000 C 355.045 74.412,355.078 74.581,355.118 74.375 C 355.157 74.169,355.157 73.831,355.118 73.625 C 355.078 73.419,355.045 73.587,355.045 74.000 M106.083 77.000 L 89.083 77.086 106.032 77.126 C 117.195 77.153,123.015 77.110,123.083 77.000 C 123.140 76.908,123.163 76.852,123.135 76.874 C 123.107 76.896,115.433 76.953,106.083 77.000 M142.609 77.125 C 142.539 77.238,154.523 77.237,170.500 77.123 C 173.846 77.099,168.957 77.061,159.635 77.040 C 150.313 77.018,142.652 77.056,142.609 77.125 M26.877 85.120 C 27.131 85.158,27.506 85.157,27.711 85.117 C 27.916 85.078,27.708 85.046,27.250 85.048 C 26.792 85.049,26.624 85.081,26.877 85.120 M119.667 87.583 C 119.978 87.904,120.270 88.167,120.315 88.167 C 120.361 88.167,120.144 87.904,119.833 87.583 C 119.522 87.263,119.230 87.000,119.185 87.000 C 119.139 87.000,119.356 87.263,119.667 87.583 M316.500 90.052 C 316.500 90.081,316.744 90.325,317.042 90.594 L 317.583 91.083 317.094 90.542 C 316.638 90.037,316.500 89.923,316.500 90.052 M186.199 96.624 C 187.179 96.654,188.829 96.654,189.866 96.625 C 190.902 96.595,190.100 96.571,188.083 96.571 C 186.067 96.571,185.219 96.595,186.199 96.624 M270.051 96.624 C 271.041 96.654,272.616 96.654,273.551 96.624 C 274.485 96.595,273.675 96.570,271.750 96.571 C 269.825 96.571,269.060 96.595,270.051 96.624 M283.375 96.624 C 284.360 96.654,285.973 96.654,286.958 96.624 C 287.944 96.595,287.137 96.571,285.167 96.571 C 283.196 96.571,282.390 96.595,283.375 96.624 M100.627 97.618 C 100.834 97.658,101.134 97.656,101.294 97.615 C 101.453 97.573,101.283 97.540,100.917 97.542 C 100.550 97.544,100.420 97.578,100.627 97.618 M154.042 97.615 C 154.202 97.657,154.465 97.657,154.625 97.615 C 154.785 97.573,154.654 97.539,154.333 97.539 C 154.012 97.539,153.881 97.573,154.042 97.615 M333.794 97.618 C 334.001 97.658,334.301 97.656,334.460 97.615 C 334.620 97.573,334.450 97.540,334.083 97.542 C 333.717 97.544,333.586 97.578,333.794 97.618 " stroke="none" fill="#343c7d" fill-rule="evenodd"></path></g></svg>